<svg width="29" height="16" viewBox="0 0 29 16" fill="none" xmlns="http://www.w3.org/2000/svg">
<path d="M3.06066 0.93934C2.47487 0.353553 1.52513 0.353553 0.93934 0.93934C0.353553 1.52513 0.353553 2.47487 0.93934 3.06066L3.06066 0.93934ZM14.5 14.5L13.4393 15.5607C14.0251 16.1464 14.9749 16.1464 15.5607 15.5607L14.5 14.5ZM28.0607 3.06066C28.6464 2.47487 28.6464 1.52513 28.0607 0.93934C27.4749 0.353553 26.5251 0.353553 25.9393 0.93934L28.0607 3.06066ZM0.93934 3.06066L13.4393 15.5607L15.5607 13.4393L3.06066 0.93934L0.93934 3.06066ZM15.5607 15.5607L28.0607 3.06066L25.9393 0.93934L13.4393 13.4393L15.5607 15.5607Z" fill="#C7C7C7"/>
</svg>
