<svg width="38" height="34" viewBox="0 0 38 34" fill="none" xmlns="http://www.w3.org/2000/svg">
<path d="M5.09548 25.4597C5.27462 25.4597 5.54959 25.3139 6.00787 25.0305C7.06607 24.3848 7.90347 23.0808 8.50339 21.3643C9.33246 18.9896 9.70325 15.8233 9.58243 12.4862C9.46161 9.21581 10.7948 6.04953 12.5904 3.36236C13.1694 2.4958 14.4068 1.46255 13.2028 1.46255C10.3365 1.46255 -3.7701 8.71166 0.962655 15.7816C5.48714 22.5434 4.29979 25.4597 5.09548 25.4597Z" fill="#E1AC7C"/>
<path d="M25.4097 3.36657C27.2012 6.05374 28.5343 9.22422 28.4176 12.4904C28.2969 15.8234 28.6676 18.9939 29.4967 21.3686C30.0966 23.085 30.934 24.389 31.9922 25.0348C32.4546 25.3181 32.7296 25.4639 32.9045 25.4639C33.6961 25.4639 32.513 22.5434 37.0374 15.7859C41.7701 8.71595 27.6635 1.46684 24.7972 1.46684C23.5891 1.4668 24.8306 2.50001 25.4097 3.36657Z" fill="#E1AC7C"/>
<path d="M9.31592 23.2183C9.54089 23.6849 9.77836 24.1515 10.0242 24.614C12.828 29.8675 12.478 30.5716 12.478 31.9006C12.478 33.1171 15.261 33.9795 18.1607 31.6714V29.2967C17.0775 28.8343 15.7693 27.6428 15.7693 26.5762C15.7693 25.218 17.2024 25.0139 18.9731 25.0139C18.9814 25.0139 18.9897 25.0139 18.9981 25.0139C18.9981 25.0139 19.0147 25.0139 19.0231 25.0139C20.7937 25.0139 22.2269 25.218 22.2269 26.5762C22.2269 27.6428 20.9187 28.8343 19.8355 29.2967V31.6714C22.7518 33.9795 25.5181 33.1171 25.5181 31.9006C25.5181 30.5674 25.1682 29.8675 27.972 24.614C28.2178 24.1515 28.4553 23.6849 28.6802 23.2183C28.3261 22.4851 28.022 21.6477 27.772 20.7228C27.1304 18.3564 26.8471 15.4901 26.9596 12.4405C27.0012 11.2865 26.8429 10.0824 26.4847 8.85757C26.193 7.85769 25.7722 6.84952 25.2306 5.85377C24.3224 4.17897 23.2434 2.94579 23.2434 2.94579C22.9018 2.44165 22.8185 1.99174 22.8393 1.62925C20.7229 0.916833 18.9981 1.00016 18.9981 1.00016C18.9897 1.00016 17.2733 0.916833 15.1569 1.62925C15.1819 1.9917 15.0944 2.44165 14.7527 2.94579C14.7527 2.94579 13.6738 4.17897 12.7655 5.85377C12.2239 6.84948 11.8031 7.86185 11.5115 8.85757C11.1532 10.0783 10.9949 11.2865 11.0366 12.4405C11.149 15.4943 10.8657 18.3564 10.2242 20.7228C9.97417 21.6477 9.67004 22.4809 9.31592 23.2183ZM23.5767 12.0697C24.6599 12.0697 25.539 12.9487 25.539 14.0319C25.539 15.1151 24.6599 15.9942 23.5767 15.9942C22.4935 15.9942 21.6144 15.1151 21.6144 14.0319C21.6144 12.9487 22.4935 12.0697 23.5767 12.0697ZM14.4195 12.0697C15.5027 12.0697 16.3818 12.9487 16.3818 14.0319C16.3818 15.1151 15.5027 15.9942 14.4195 15.9942C13.3363 15.9942 12.4572 15.1151 12.4572 14.0319C12.4572 12.9487 13.3363 12.0697 14.4195 12.0697Z" fill="#E1AC7C"/>
</svg>
