<svg width="32" height="32" viewBox="0 0 32 32" fill="none" xmlns="http://www.w3.org/2000/svg">
<path fill-rule="evenodd" clip-rule="evenodd" d="M7.33325 3C7.88554 3 8.33325 3.44772 8.33325 4V6H16.6666L21.3333 8H25.9999C26.7363 8 27.3333 8.59693 27.3333 9.33333V20.6667C27.3333 21.4031 26.7363 22 25.9999 22H21.3333L16.6666 20H8.33325V27H9.99984C10.5521 27 10.9998 27.4477 10.9998 28C10.9998 28.5523 10.5521 29 9.99984 29H7.33325H4.6665C4.11422 29 3.6665 28.5523 3.6665 28C3.6665 27.4477 4.11422 27 4.6665 27H6.33325V4C6.33325 3.44772 6.78097 3 7.33325 3Z" fill="#DB9B61"/>
</svg>
