<svg width="24" height="26" viewBox="0 0 24 26" fill="none" xmlns="http://www.w3.org/2000/svg">
<path d="M17.2259 20.4987C17.8132 22.3014 18.0655 23.2425 17.8377 24.0926C17.3878 25.7715 15.8925 26.2434 14.1718 25.7823C13.4134 25.5791 12.924 25.4469 11.8551 24.4869C11.8551 24.4869 11.2452 23.5558 9.3493 23.1267C7.47516 22.5462 6.47873 23.056 6.47873 23.056C5.07309 23.3524 4.60278 23.2193 3.84529 23.0163C2.12464 22.5553 1.06431 21.3997 1.51442 19.7199C1.74221 18.8697 2.43243 18.1822 3.84216 16.9136C3.84216 16.9136 6.5488 14.36 8.5695 13.3589C10.0292 12.6369 11.7508 13.1023 11.7508 13.1023L12.2822 13.2447L12.2823 13.2442C12.2823 13.2442 14.0814 13.7217 14.9105 15.058C16.0953 16.9739 17.2258 20.4992 17.2259 20.4987ZM8.36081 10.0012C10.1597 10.4833 12.2123 8.65536 12.9455 5.91891C13.6788 3.18246 12.8151 0.573173 11.0162 0.0911537C9.21728 -0.390866 7.16472 1.43703 6.43149 4.17348C5.69826 6.90993 6.56189 9.51921 8.36081 10.0012ZM3.95358 13.9637C5.43956 13.7214 6.30974 11.6835 5.8966 9.41166C5.48346 7.13981 3.94422 5.49417 2.45836 5.73604C0.97251 5.97791 0.102695 8.01639 0.515349 10.2881C0.928489 12.56 2.46786 14.2051 3.95358 13.9637ZM15.9333 12.0303C17.7322 12.5123 19.7853 10.6845 20.5185 7.94808C21.2517 5.21163 20.3876 2.60221 18.5887 2.12019C16.7898 1.63818 14.7372 3.46607 14.004 6.20252C13.2707 8.93897 14.1344 11.5483 15.9333 12.0303ZM23.1782 11.2874C22.012 10.3344 19.8566 10.9901 18.3628 12.7515C16.8689 14.5128 16.6036 16.7128 17.7698 17.6658C18.9361 18.6183 21.0915 17.9626 22.5852 16.2017C24.0789 14.4408 24.3444 12.2404 23.1782 11.2874Z" fill="#DB9B61"/>
</svg>
