<svg width="91" height="92" viewBox="0 0 91 92" fill="none" xmlns="http://www.w3.org/2000/svg">
<rect width="90.9998" height="91.083" rx="18" fill="#F0D6BE"/>
<path d="M28.6692 32.0448C26.4786 32.5986 24.9772 33.1847 23.9655 33.7072C22.9638 34.2245 22.4123 34.6947 22.1596 35.0352L21.9375 35.3344L22.1608 35.6327C22.4115 35.9678 22.9607 36.4358 23.9619 36.9525C24.973 37.4744 26.475 38.0612 28.6683 38.6158C33.2242 39.7679 39.2015 40.3976 45.4999 40.3976C51.7982 40.3976 57.7756 39.7679 62.3315 38.6158L62.3315 38.6158C64.5189 38.0626 66.0187 37.4774 67.03 36.9556C68.0315 36.439 68.5832 35.9694 68.837 35.6292L69.0602 35.33L68.8367 35.0309C68.5822 34.6904 68.0297 34.2208 67.0279 33.7042C66.0162 33.1825 64.5166 32.5977 62.3304 32.0448C57.7747 30.8928 51.7976 30.2633 45.4999 30.2633C39.202 30.2633 33.2249 30.8928 28.6692 32.0448ZM28.6692 32.0448L28.7917 32.5296M28.6692 32.0448L28.7917 32.5296M28.7917 32.5296C24.4646 33.6235 22.9375 34.8261 22.5611 35.3332L68.4362 35.3302C68.0559 34.8213 66.5262 33.6216 62.2078 32.5296C57.7034 31.3905 51.7696 30.7633 45.4999 30.7633C39.2299 30.7633 33.2962 31.3905 28.7917 32.5296ZM75.1241 49.5889L75.1859 49.8588L75.4474 49.9497C76.6429 50.365 77.5 51.4982 77.4998 52.832C77.4998 54.6117 76.6619 56.207 74.895 57.6177C73.1144 59.0393 70.4099 60.2537 66.7523 61.2263C61.0497 62.7427 53.5026 63.583 45.5012 63.583H45.5011H45.5011H45.5011H45.501H45.501H45.501H45.5009H45.5009H45.5009H45.5008H45.5008H45.5008H45.5008H45.5007H45.5007H45.5007H45.5006H45.5006H45.5006H45.5005H45.5005H45.5005H45.5005H45.5004H45.5004H45.5004H45.5003H45.5003H45.5003H45.5002H45.5002H45.5002H45.5001H45.5001H45.5001H45.5001H45.5H45.5H45.5H45.4999H45.4999C37.4982 63.583 29.9505 62.7423 24.2475 61.2261C20.5899 60.2535 17.8854 59.0391 16.1047 57.6175C14.3379 56.2069 13.5 54.6116 13.5 52.8321C13.5 51.4982 14.3571 50.365 15.5526 49.9499L15.8141 49.859L15.8759 49.5891L15.3886 49.4776C15.8759 49.5891 15.876 49.5891 15.876 49.589L15.8761 49.5885L15.8766 49.5864L15.8784 49.5783L15.8858 49.5461L15.9145 49.4206L16.0236 48.9442L16.4135 47.2429C16.7365 45.8344 17.1676 43.9552 17.6006 42.0722C18.0335 40.1892 18.4681 38.3026 18.7981 36.8794C18.9631 36.1677 19.1018 35.5724 19.2009 35.1514C19.2506 34.9408 19.2901 34.7747 19.3179 34.6599C19.3319 34.6022 19.3426 34.559 19.35 34.5301L19.3562 34.5067L19.3569 34.5044C19.6659 33.5379 20.4542 32.6123 21.8179 31.7555C23.1805 30.8993 25.0778 30.1377 27.5248 29.4871L27.5248 29.487C32.3308 28.209 38.7146 27.5 45.4999 27.5C52.2854 27.5 58.669 28.209 63.475 29.487L63.475 29.4871C65.9209 30.1372 67.8176 30.8985 69.1802 31.7542C70.5437 32.6106 71.3325 33.5357 71.6422 34.5017L71.6428 34.5037L71.649 34.5271C71.6564 34.556 71.6671 34.5993 71.6811 34.657C71.709 34.7719 71.7485 34.938 71.7982 35.1487C71.8974 35.5698 72.0362 36.1653 72.2012 36.8772C72.5313 38.3007 72.966 40.1876 73.3991 42.0709C73.8321 43.9542 74.2634 45.8337 74.5864 47.2424L74.9763 48.944L75.0855 49.4204L75.1142 49.5459L75.1216 49.5781L75.1234 49.5862L75.1239 49.5883L75.124 49.5888C75.1241 49.5889 75.1241 49.5889 75.6115 49.4773L75.1241 49.5889ZM19.3573 34.5025C19.3609 34.4895 19.3606 34.4921 19.3571 34.5033L19.3573 34.5025ZM71.6417 34.4995L71.6419 34.5003C71.6385 34.4892 71.6382 34.4866 71.6417 34.4995ZM54.1822 56.1279C56.1284 56.1279 57.7108 54.5452 57.7108 52.5991C57.7108 51.8343 57.4659 51.1253 57.0512 50.547C57.4659 49.9688 57.7108 49.2597 57.7108 48.4949C57.7108 46.5488 56.1284 44.9661 54.1822 44.9661C52.4563 44.9661 51.0164 46.2103 50.7123 47.8493H40.2874C39.9832 46.2104 38.5439 44.9661 36.818 44.9661C34.8719 44.9661 33.2892 46.5488 33.2892 48.4949C33.2892 49.2597 33.5341 49.9687 33.9488 50.547C33.5341 51.1253 33.2892 51.8343 33.2892 52.5991C33.2892 54.5452 34.8717 56.1279 36.818 56.1279C38.5439 56.1279 39.9832 54.8836 40.2874 53.2447H50.7123C51.0164 54.8837 52.4563 56.1279 54.1822 56.1279Z" fill="#DB9B61" stroke="#DB9B61"/>
</svg>
