<svg width="25" height="26" viewBox="0 0 25 26" fill="none" xmlns="http://www.w3.org/2000/svg">
<path d="M17.6195 20.4987C18.2068 22.3014 18.459 23.2425 18.2312 24.0926C17.7814 25.7715 16.286 26.2434 14.5654 25.7823C13.8069 25.5791 13.3176 25.4469 12.2486 24.4869C12.2486 24.4869 11.6388 23.5558 9.74286 23.1267C7.86872 22.5462 6.87228 23.056 6.87228 23.056C5.46665 23.3524 4.99633 23.2193 4.23884 23.0163C2.5182 22.5553 1.45786 21.3997 1.90798 19.7199C2.13577 18.8697 2.82599 18.1822 4.23572 16.9136C4.23572 16.9136 6.94236 14.36 8.96306 13.3589C10.4228 12.6369 12.1444 13.1023 12.1444 13.1023L12.6758 13.2447L12.6759 13.2442C12.6759 13.2442 14.475 13.7217 15.304 15.058C16.4889 16.9739 17.6193 20.4992 17.6195 20.4987ZM8.75436 10.0012C10.5533 10.4833 12.6059 8.65536 13.3391 5.91891C14.0723 3.18246 13.2087 0.573173 11.4098 0.0911537C9.61084 -0.390866 7.55827 1.43703 6.82504 4.17348C6.09181 6.90993 6.95544 9.51921 8.75436 10.0012ZM4.34714 13.9637C5.83312 13.7214 6.70329 11.6835 6.29015 9.41166C5.87701 7.13981 4.33777 5.49417 2.85192 5.73604C1.36606 5.97791 0.49625 8.01639 0.908904 10.2881C1.32204 12.56 2.86141 14.2051 4.34714 13.9637ZM16.3268 12.0303C18.1258 12.5123 20.1788 10.6845 20.912 7.94808C21.6453 5.21163 20.7812 2.60221 18.9822 2.12019C17.1833 1.63818 15.1308 3.46607 14.3975 6.20252C13.6643 8.93897 14.5279 11.5483 16.3268 12.0303ZM23.5717 11.2874C22.4055 10.3344 20.2502 10.9901 18.7563 12.7515C17.2625 14.5128 16.9971 16.7128 18.1633 17.6658C19.3297 18.6183 21.485 17.9626 22.9787 16.2017C24.4725 14.4408 24.7379 12.2404 23.5717 11.2874Z" fill="#FBF5EF"/>
</svg>
