<svg width="32" height="32" viewBox="0 0 32 32" fill="none" xmlns="http://www.w3.org/2000/svg">
<path d="M26.7658 11.2501L26.7658 11.2501C26.6718 10.7254 26.2153 10.3434 25.682 10.3434H20.0318H18.8117L19.6809 9.48718C20.6493 8.53335 21.2495 7.21035 21.2495 5.74935C21.2495 2.85526 18.8943 0.5 16.0002 0.5C13.1061 0.5 10.7507 2.85527 10.7507 5.74935C10.7507 7.21035 11.351 8.53335 12.3193 9.48718L13.1886 10.3434H11.9685H6.31829C5.78509 10.3434 5.32859 10.7254 5.23446 11.2501H26.7658ZM26.7658 11.2501L30.1632 30.2045C30.1632 30.2046 30.1632 30.2046 30.1632 30.2046C30.2206 30.5256 30.133 30.8554 29.9238 31.1054C29.7146 31.3554 29.4053 31.4999 29.0794 31.4999H2.92092C2.59493 31.4999 2.28567 31.3554 2.07647 31.1054L2.07641 31.1054C1.86724 30.8555 1.77961 30.5257 1.83709 30.2046C1.83709 30.2046 1.8371 30.2046 1.8371 30.2045L5.23445 11.2502L26.7658 11.2501ZM13.5643 25.043L13.5643 25.043L12.0258 22.4166L11.4312 23.0237V24.289C11.4312 24.9723 10.8773 25.5262 10.1941 25.5262C9.51082 25.5262 8.95693 24.9723 8.95693 24.289V18.4614C8.95693 17.7782 9.51082 17.2243 10.1941 17.2243C10.8773 17.2243 11.4312 17.7782 11.4312 18.4614V19.6834L13.4 17.5403C13.585 17.3388 13.8461 17.2243 14.1194 17.2243H14.7676C15.1598 17.2243 15.5137 17.4587 15.6669 17.8195L15.667 17.8198C15.8201 18.1807 15.7425 18.5983 15.47 18.8801L15.47 18.8802L13.779 20.6294L15.9816 24.0165L15.9818 24.0168C16.1768 24.317 16.1922 24.7 16.0213 25.0151L13.5643 25.043ZM13.5643 25.043C13.7397 25.3423 14.0606 25.5262 14.4073 25.5262H15.1626C15.5207 25.5262 15.8504 25.3302 16.0212 25.0152L13.5643 25.043ZM22.9771 24.5681L22.977 24.5682C22.6316 24.8438 22.1953 25.0769 21.6833 25.2755M22.9771 24.5681L22.7368 18.4604C22.5526 18.1957 22.3278 17.9651 22.0652 17.7692C21.4393 17.3024 20.6119 17.0996 19.642 17.0996C18.8897 17.0996 18.2225 17.2302 17.6645 17.519C16.9635 17.8793 16.4221 18.4032 16.0541 19.0857C15.691 19.7588 15.516 20.5182 15.516 21.3502C15.516 22.121 15.6735 22.8437 15.9934 23.5112C16.3226 24.1985 16.8204 24.7339 17.4786 25.1053L17.4786 25.1053C18.1336 25.4749 18.8867 25.6505 19.7217 25.6505C20.3873 25.6505 21.0421 25.5243 21.6833 25.2755M22.9771 24.5681C23.2094 24.3827 23.3446 24.1011 23.3446 23.8043V21.5881C23.3446 21.0487 22.9073 20.6112 22.3677 20.6112H20.2821C19.6664 20.6112 19.1671 21.1103 19.1671 21.7262C19.1671 22.342 19.6662 22.8413 20.2821 22.8413H20.8554M22.9771 24.5681L17.7243 24.6699M21.6833 25.2755L21.5024 24.8094M21.6833 25.2755C21.6833 25.2755 21.6833 25.2755 21.6833 25.2755L21.5024 24.8094M21.5024 24.8094C20.9162 25.0368 20.3227 25.1505 19.7217 25.1505C18.9579 25.1505 18.2924 24.9904 17.7243 24.6699M21.5024 24.8094C21.9834 24.6228 22.371 24.4121 22.6651 24.1774C22.7784 24.087 22.8446 23.9493 22.8446 23.8043V21.5881C22.8446 21.3248 22.6311 21.1112 22.3677 21.1112H20.2821C19.9425 21.1112 19.6671 21.3865 19.6671 21.7262C19.6671 22.0659 19.9424 22.3413 20.2821 22.3413H20.8554V22.8413M17.7243 24.6699C17.1567 24.3495 16.7299 23.8913 16.4443 23.2952L17.7243 24.6699ZM20.8554 22.8413V23.0065C20.7162 23.0924 20.5563 23.1716 20.374 23.2429C20.117 23.3432 19.8689 23.3904 19.6272 23.3904C19.1332 23.3904 18.769 23.2258 18.4867 22.9082L18.4866 22.9082C18.2148 22.6025 18.0352 22.0937 18.0352 21.2904C18.0352 20.5581 18.2088 20.0953 18.4715 19.813C18.742 19.5224 19.1131 19.3598 19.642 19.3598C19.9834 19.3598 20.2286 19.4419 20.4105 19.5748C20.5183 19.6537 20.6042 19.7461 20.6715 19.8531L20.6715 19.8532C20.94 20.2803 21.4423 20.4997 21.9378 20.407M20.8554 22.8413L22.405 19.4607L22.8677 19.6502C22.7069 20.043 22.3579 20.3284 21.9396 20.4067L21.9393 20.4067L21.9378 20.407M21.9378 20.407L21.9376 20.407L21.8459 19.9155L21.9378 20.407ZM22.3263 18.746L22.7368 18.4605L22.3263 18.746ZM21.0948 19.5871C20.993 19.4251 20.8631 19.2864 20.7054 19.171C20.4214 18.9635 20.0669 18.8598 19.642 18.8598C18.9977 18.8598 18.4855 19.0641 18.1055 19.4724L21.0948 19.5871ZM19.0474 5.74935C19.0474 4.06863 17.6809 2.70215 16.0002 2.70215C14.3195 2.70215 12.9529 4.06861 12.9529 5.74935C12.9529 7.43006 14.3195 8.79665 16.0002 8.79665C17.6809 8.79665 19.0474 7.43003 19.0474 5.74935Z" fill="#DB9B61" stroke="#DB9B61"/>
</svg>
