<svg width="102" height="103" viewBox="0 0 102 103" fill="none" xmlns="http://www.w3.org/2000/svg">
<rect width="102" height="102.014" rx="14" fill="#F0D6BE"/>
<path d="M73.0609 28.4297L73.0385 28.9723L73.5811 28.9499C75.8974 28.8542 78.2243 29.6803 79.993 31.4419C83.3444 34.7937 83.3319 40.2217 79.9781 43.5755C77.3269 46.2267 73.4243 46.8195 70.1744 45.2287L69.8536 45.0717L69.6011 45.3243L45.3134 69.6119L45.0609 69.8645L45.2179 70.1853C46.809 73.4359 46.2225 77.3383 43.5718 79.989C40.2174 83.3434 34.8035 83.362 31.4522 80.0106L31.4515 80.01C29.6837 78.249 28.8505 75.9083 28.9462 73.5921L28.9686 73.0495L28.426 73.0719C26.1093 73.1675 23.7756 72.3412 22.0074 70.573C18.6554 67.221 18.6683 61.7929 22.0215 58.4465L22.0219 58.4462C24.6731 55.795 28.5757 55.2022 31.8255 56.7929L32.1463 56.95L32.3989 56.6974L56.6866 32.4025L56.939 32.1499L56.782 31.8292C55.1913 28.5794 55.7841 24.6767 58.4353 22.0256L58.0817 21.672L58.4353 22.0256C61.7897 18.6711 67.2036 18.6525 70.5549 22.0039L70.9084 21.6503L70.5549 22.0039C72.3235 23.7725 73.1565 26.1136 73.0609 28.4297Z" fill="#DB9B61" stroke="#DB9B61"/>
</svg>
