<svg width="32" height="32" viewBox="0 0 32 32" fill="none" xmlns="http://www.w3.org/2000/svg">
<path d="M22.9771 24.5681L22.977 24.5682C22.6316 24.8438 22.1953 25.0769 21.6833 25.2755C21.6833 25.2755 21.6833 25.2755 21.6833 25.2755L21.5024 24.8094C20.9162 25.0368 20.3227 25.1505 19.7217 25.1505C18.9579 25.1505 18.2924 24.9904 17.7243 24.6699L22.9771 24.5681ZM22.9771 24.5681C23.2094 24.3827 23.3446 24.1011 23.3446 23.8043V21.5881C23.3446 21.0487 22.9073 20.6112 22.3677 20.6112H20.2821C19.6664 20.6112 19.1671 21.1103 19.1671 21.7262C19.1671 22.342 19.6662 22.8413 20.2821 22.8413H20.8554M22.9771 24.5681L20.8554 22.8413M20.8554 22.8413V23.0065C20.7162 23.0924 20.5563 23.1716 20.374 23.2429C20.117 23.3432 19.8689 23.3904 19.6272 23.3904C19.1332 23.3904 18.769 23.2258 18.4867 22.9082L18.4866 22.9082C18.2148 22.6025 18.0352 22.0937 18.0352 21.2904C18.0352 20.5581 18.2088 20.0953 18.4715 19.813C18.742 19.5224 19.1131 19.3598 19.642 19.3598C19.9832 19.3598 20.2283 19.4418 20.4101 19.5745L20.8554 22.8413ZM21.9396 20.4067L21.9395 20.4067L21.9378 20.407L21.854 19.9587L21.9378 20.407C21.4423 20.4997 20.94 20.2803 20.6715 19.8532L20.6715 19.8531C20.6042 19.7461 20.5183 19.6537 20.4105 19.5748L21.9396 20.4067ZM21.9396 20.4067C22.3579 20.3284 22.7069 20.043 22.8677 19.6502M21.9396 20.4067L22.8677 19.6502M22.8677 19.6502C23.0287 19.2571 22.9795 18.8092 22.7368 18.4605L22.8677 19.6502ZM26.7658 11.2501L26.7658 11.2501L30.1632 30.2045C30.1632 30.2046 30.1632 30.2046 30.1632 30.2046C30.2206 30.5256 30.133 30.8554 29.9238 31.1054C29.7146 31.3554 29.4053 31.4999 29.0794 31.4999H2.92092C2.59493 31.4999 2.28567 31.3554 2.07647 31.1054L2.07641 31.1054C1.86724 30.8555 1.77961 30.5257 1.83709 30.2046C1.83709 30.2046 1.8371 30.2046 1.8371 30.2045L5.23445 11.2502C5.32856 10.7254 5.78507 10.3434 6.31829 10.3434H11.9685H13.1886L12.3193 9.48718C11.351 8.53335 10.7507 7.21035 10.7507 5.74935C10.7507 2.85527 13.1061 0.5 16.0002 0.5C18.8943 0.5 21.2495 2.85526 21.2495 5.74935C21.2495 7.21035 20.6493 8.53335 19.6809 9.48718L18.8117 10.3434H20.0318H25.682C26.2153 10.3434 26.6718 10.7254 26.7658 11.2501ZM13.5643 25.043L13.5643 25.043C13.7397 25.3423 14.0606 25.5262 14.4073 25.5262H15.1626C15.5207 25.5262 15.8504 25.3301 16.0213 25.0151C16.1922 24.7 16.1768 24.317 15.9818 24.0168L15.9816 24.0165L13.779 20.6294L15.47 18.8802L15.47 18.8801C15.7425 18.5983 15.8201 18.1807 15.667 17.8198L15.6669 17.8195C15.5137 17.4587 15.1598 17.2243 14.7676 17.2243H14.1194C13.8461 17.2243 13.585 17.3388 13.4 17.5403C13.4 17.5403 13.4 17.5403 13.4 17.5403L11.4312 19.6834V18.4614C11.4312 17.7782 10.8773 17.2243 10.1941 17.2243C9.51082 17.2243 8.95693 17.7782 8.95693 18.4614V24.289C8.95693 24.9723 9.51082 25.5262 10.1941 25.5262C10.8773 25.5262 11.4312 24.9723 11.4312 24.289V23.0237L12.0258 22.4166L13.5643 25.043ZM15.516 21.3502C15.516 22.121 15.6735 22.8437 15.9934 23.5112L22.7368 18.4604C22.5526 18.1957 22.3278 17.9651 22.0652 17.7692C21.4393 17.3024 20.6119 17.0996 19.642 17.0996C18.8897 17.0996 18.2225 17.2302 17.6645 17.519C16.9635 17.8793 16.4221 18.4033 16.0541 19.0858C15.6909 19.7589 15.516 20.5182 15.516 21.3502ZM19.0474 5.74935C19.0474 4.06863 17.6809 2.70215 16.0002 2.70215C14.3195 2.70215 12.9529 4.06861 12.9529 5.74935C12.9529 7.43005 14.3195 8.79665 16.0002 8.79665C17.6809 8.79665 19.0474 7.43003 19.0474 5.74935Z" fill="#DB9B61" stroke="#DB9B61"/>
</svg>
