<svg width="162" height="168" viewBox="0 0 162 168" fill="none" xmlns="http://www.w3.org/2000/svg">
<path d="M24.9093 89.8428C24.6402 89.9779 24.4046 90.1383 24.2023 90.3242C23.9968 90.5076 23.8289 90.7159 23.6987 90.9489C23.568 91.1791 23.4789 91.4321 23.4314 91.7079C23.3839 91.9837 23.3818 92.2787 23.4251 92.5932C23.496 93.1087 23.6917 93.5581 24.0122 93.9415C24.3327 94.3249 24.7655 94.6036 25.3107 94.7775C25.8559 94.9515 26.4997 94.9838 27.2423 94.8744C27.9849 94.765 28.5942 94.5466 29.0704 94.2192C29.5466 93.8918 29.8862 93.4935 30.0894 93.0243C30.2926 92.5551 30.3571 92.0514 30.2831 91.5132C30.2145 91.0147 30.0493 90.5911 29.7877 90.2424C29.523 89.8913 29.1833 89.6379 28.7689 89.4822C28.3512 89.3241 27.88 89.2837 27.3551 89.3611L27.3777 89.0283L27.7379 91.6455L26.8166 91.7813L26.3606 88.4672L27.2818 88.3315C27.9881 88.2274 28.6233 88.2899 29.1874 88.5189C29.7512 88.745 30.2136 89.1046 30.5748 89.5976C30.9329 90.0881 31.1594 90.679 31.2545 91.3701C31.3606 92.1405 31.2751 92.8438 30.998 93.48C30.7206 94.1133 30.2749 94.6414 29.6609 95.0642C29.0465 95.4842 28.2871 95.7608 27.3826 95.8941C26.7043 95.9941 26.0816 95.9919 25.5147 95.8876C24.9446 95.7808 24.445 95.5857 24.0158 95.3021C23.5865 95.0186 23.2381 94.6596 22.9704 94.2251C22.7026 93.7906 22.5304 93.2943 22.4536 92.7363C22.3905 92.2774 22.4 91.8396 22.4822 91.4229C22.5612 91.0038 22.7036 90.6201 22.9091 90.272C23.1115 89.9213 23.37 89.6159 23.6845 89.3557C23.9962 89.0959 24.3546 88.8957 24.7596 88.7551L24.9093 89.8428Z" fill="#1F1F1F"/>
<path d="M31.0965 77.0146C31.0104 77.6059 30.7975 78.1034 30.4579 78.5069C30.1186 78.9075 29.6838 79.1944 29.1536 79.3676C28.6237 79.5379 28.0286 79.5716 27.3683 79.4687C26.7025 79.3648 26.1392 79.1505 25.6786 78.8257C25.2185 78.4981 24.8833 78.0912 24.6732 77.6048C24.4636 77.1157 24.4018 76.5754 24.4879 75.9841C24.574 75.3928 24.7867 74.8968 25.126 74.4961C25.4656 74.0926 25.9018 73.8059 26.4344 73.636C26.9675 73.4633 27.5669 73.4288 28.2328 73.5327C28.8931 73.6356 29.4519 73.8507 29.9093 74.1779C30.3672 74.5022 30.7009 74.909 30.9106 75.3982C31.1207 75.8845 31.1826 76.4233 31.0965 77.0146ZM30.2143 76.877C30.2797 76.4279 30.2211 76.0408 30.0386 75.7158C29.8561 75.3907 29.5919 75.13 29.246 74.9336C28.9001 74.7372 28.5135 74.6057 28.0862 74.5391C27.6589 74.4724 27.2507 74.48 26.8614 74.5618C26.4721 74.6435 26.1426 74.8117 25.8729 75.0662C25.6032 75.3207 25.4356 75.6725 25.3702 76.1217C25.3048 76.5709 25.3647 76.9582 25.55 77.2836C25.7352 77.6091 26.0022 77.8702 26.3509 78.0671C26.6996 78.2639 27.0876 78.3956 27.5149 78.4623C27.9421 78.5289 28.349 78.5211 28.7355 78.4389C29.122 78.3567 29.4488 78.1881 29.7157 77.9332C29.9827 77.6783 30.1489 77.3262 30.2143 76.877Z" fill="#1F1F1F"/>
<path d="M26.056 61.4457L34.0327 64.7035L33.6698 65.6549L25.6931 62.3971L26.056 61.4457Z" fill="#1F1F1F"/>
<path d="M38.7064 55.6094C38.4011 56.0689 38.0206 56.3955 37.5649 56.5894C37.1069 56.7816 36.6081 56.8321 36.0688 56.7409C35.5271 56.6481 34.977 56.403 34.4185 56.0057C33.8646 55.6117 33.4499 55.1704 33.1744 54.682C32.899 54.1935 32.7679 53.6932 32.7811 53.1811C32.7944 52.669 32.9553 52.1808 33.2637 51.7165C33.5022 51.3575 33.7478 51.1146 34.0006 50.9878C34.2527 50.857 34.4874 50.7879 34.7047 50.7804C34.9213 50.7689 35.0961 50.7645 35.229 50.7675L35.2767 50.6957L32.6811 48.8492L33.2439 48.002L40.2754 53.0041L39.7317 53.8225L38.9214 53.2461L38.8546 53.3466C38.9094 53.4773 38.9719 53.6521 39.0421 53.8712C39.11 54.0886 39.1304 54.3446 39.1034 54.639C39.074 54.9317 38.9417 55.2552 38.7064 55.6094ZM38.0548 54.9767C38.2806 54.6369 38.3867 54.2895 38.3731 53.9345C38.3573 53.5778 38.2388 53.231 38.0177 52.894C37.7944 52.5554 37.4836 52.2445 37.0853 51.9611C36.6916 51.6811 36.3074 51.4958 35.9326 51.4054C35.5556 51.3134 35.2068 51.3261 34.8861 51.4434C34.5632 51.559 34.2873 51.7892 34.0584 52.1338C33.8199 52.4927 33.7093 52.8546 33.7265 53.2193C33.7431 53.5799 33.8615 53.9267 34.0819 54.2597C34.3016 54.5886 34.5968 54.885 34.9676 55.1488C35.343 55.4158 35.7238 55.5986 36.11 55.6971C36.4955 55.7917 36.8574 55.7848 37.1956 55.6765C37.5331 55.5642 37.8195 55.3309 38.0548 54.9767Z" fill="#1F1F1F"/>
<path d="M48.0459 44.6532C47.5668 45.07 47.0663 45.3222 46.5445 45.4098C46.023 45.4934 45.5109 45.423 45.0082 45.1987C44.5059 44.9703 44.0447 44.5976 43.6248 44.0807C43.2048 43.5639 42.9275 43.0276 42.7928 42.4719C42.6585 41.9121 42.6687 41.3761 42.8235 40.8639C42.9787 40.3476 43.2807 39.8942 43.7296 39.5037C43.9886 39.2784 44.2799 39.0997 44.6036 38.9677C44.9272 38.8356 45.2727 38.778 45.6401 38.7949C46.0056 38.8096 46.3807 38.9244 46.7653 39.1394C47.1499 39.3543 47.5335 39.6973 47.916 40.1682L48.183 40.4967L44.3501 43.831L43.8056 43.1608L46.8615 40.5024C46.6302 40.2176 46.3677 40.0124 46.0739 39.8866C45.7824 39.7589 45.4816 39.7197 45.1716 39.7688C44.8637 39.8161 44.5717 39.9599 44.2954 40.2002C43.9912 40.4649 43.7901 40.7706 43.6924 41.1173C43.5951 41.4599 43.5858 41.8044 43.6646 42.1508C43.7434 42.4972 43.8958 42.8094 44.1218 43.0876L44.4848 43.5344C44.7945 43.9155 45.1217 44.1822 45.4665 44.3346C45.8117 44.4829 46.1568 44.5247 46.502 44.4599C46.8454 44.3929 47.1714 44.2252 47.48 43.9567C47.6807 43.7821 47.8389 43.5959 47.9545 43.3982C48.0705 43.1964 48.1406 42.9858 48.165 42.7664C48.1876 42.5449 48.1601 42.3184 48.0825 42.0868L48.9914 41.655C49.1201 41.9767 49.1711 42.3136 49.1442 42.666C49.1156 43.0161 49.01 43.3622 48.8274 43.7042C48.6431 44.044 48.3826 44.3603 48.0459 44.6532Z" fill="#1F1F1F"/>
<path d="M55.5563 34.4877L57.1498 38.0869L56.2408 38.5179L53.5918 32.5348L54.47 32.1185L54.8839 33.0533L54.9609 33.0168C54.9651 32.6472 55.0676 32.3033 55.2684 31.985C55.4681 31.6641 55.7914 31.3978 56.2382 31.1859C56.6388 30.996 57.0261 30.9129 57.4002 30.9367C57.773 30.9579 58.1171 31.0964 58.4323 31.3522C58.7464 31.6055 59.0161 31.9866 59.2415 32.4956L60.9247 36.2973L60.0156 36.7283L58.36 32.9889C58.1519 32.5188 57.8691 32.2099 57.5116 32.0621C57.1529 31.9116 56.763 31.9363 56.3419 32.1359C56.0517 32.2735 55.8205 32.4601 55.6483 32.6957C55.4787 32.93 55.3824 33.2003 55.3595 33.5065C55.3366 33.8127 55.4022 34.1398 55.5563 34.4877Z" fill="#1F1F1F"/>
<path d="M78.9753 32.3354L79.3555 23.5302L82.271 23.6649C82.9451 23.6961 83.4933 23.8392 83.9157 24.0942C84.3383 24.3464 84.6447 24.6808 84.8349 25.0974C85.0252 25.514 85.1092 25.9817 85.0868 26.5005C85.0644 27.0193 84.9406 27.4746 84.7154 27.8662C84.4902 28.2579 84.1578 28.5585 83.7182 28.7679C83.2787 28.9745 82.7247 29.0623 82.0562 29.0314L79.6968 28.9224L79.7384 27.9593L82.0641 28.0668C82.5247 28.0881 82.8984 28.0364 83.1852 27.9118C83.4749 27.7873 83.6883 27.6019 83.8256 27.3555C83.9658 27.1064 84.0435 26.8056 84.0588 26.453C84.074 26.1005 84.0227 25.7893 83.9049 25.5197C83.787 25.25 83.5894 25.037 83.3119 24.8805C83.0345 24.7212 82.6627 24.6308 82.1964 24.6093L80.3595 24.5243L80.0202 32.3837L78.9753 32.3354ZM83.2076 28.5677L85.1603 32.6213L83.9469 32.5652L82.0279 28.5131L83.2076 28.5677Z" fill="#1F1F1F"/>
<path d="M95.1376 35.0911C94.5473 34.8927 94.0804 34.5871 93.7368 34.1743C93.3967 33.7596 93.1872 33.2705 93.1084 32.707C93.0331 32.1417 93.0971 31.5352 93.3004 30.8876C93.5037 30.24 93.7972 29.7076 94.181 29.2905C94.5682 28.8716 95.0114 28.5928 95.5105 28.4541C96.0131 28.3136 96.541 28.3363 97.094 28.5222C97.413 28.6295 97.7108 28.7903 97.9875 29.0046C98.2641 29.219 98.4912 29.4925 98.6689 29.8253C98.8475 30.1553 98.9492 30.5475 98.9741 31.0019C98.999 31.4562 98.9189 31.9784 98.7337 32.5684L98.6044 32.98L93.8825 31.3927L94.1462 30.553L97.9109 31.8185C98.0229 31.4618 98.0537 31.1202 98.0033 30.7938C97.9556 30.4683 97.8309 30.1822 97.6291 29.9354C97.43 29.6895 97.1603 29.5093 96.82 29.3949C96.4451 29.2689 96.0906 29.2559 95.7565 29.3559C95.4258 29.4541 95.1396 29.6309 94.8977 29.8864C94.6559 30.1418 94.4802 30.4438 94.3708 30.7923L94.1951 31.3522C94.0452 31.8297 93.9979 32.2612 94.0531 32.6469C94.1119 33.0307 94.2578 33.3574 94.4906 33.6268C94.7244 33.8934 95.0313 34.0907 95.4115 34.2185C95.6588 34.3016 95.8933 34.341 96.1151 34.3367C96.3405 34.3305 96.5491 34.2793 96.741 34.183C96.9337 34.084 97.1044 33.9381 97.2531 33.7454L98.0797 34.3145C97.884 34.6006 97.6353 34.8264 97.3335 34.992C97.0326 35.1547 96.6948 35.2475 96.3203 35.2703C95.9466 35.2903 95.5523 35.2306 95.1376 35.0911Z" fill="#1F1F1F"/>
<path d="M110.178 35L109.737 35.7413L106.909 33.9421L107.35 33.2007L110.178 35ZM108.984 32.361L109.823 32.8944L106.599 38.3213C106.452 38.5684 106.376 38.7756 106.371 38.9429C106.37 39.1092 106.412 39.248 106.496 39.3593C106.584 39.4697 106.689 39.5641 106.813 39.6424C106.905 39.7012 106.984 39.7445 107.049 39.7723C107.115 39.7976 107.169 39.8178 107.208 39.833L106.912 40.7274C106.842 40.7135 106.749 40.6852 106.634 40.6427C106.518 40.6026 106.381 40.5328 106.225 40.4333C105.988 40.2827 105.788 40.0818 105.623 39.8309C105.461 39.5815 105.371 39.3006 105.351 38.9882C105.333 38.6773 105.422 38.3562 105.619 38.0251L108.984 32.361Z" fill="#1F1F1F"/>
<path d="M113.042 45.6508L117.542 40.8174L118.224 41.4974L117.544 42.2274L117.592 42.2752C117.899 42.1195 118.231 42.0766 118.589 42.1463C118.947 42.2161 119.263 42.3882 119.539 42.6625C119.591 42.7142 119.654 42.7799 119.73 42.8595C119.806 42.9392 119.862 43.001 119.898 43.0449L119.195 43.8002C119.177 43.77 119.131 43.7059 119.057 43.6078C118.986 43.5096 118.905 43.4138 118.811 43.3204C118.587 43.0977 118.342 42.9481 118.075 42.8718C117.812 42.7953 117.549 42.7924 117.287 42.863C117.029 42.9335 116.799 43.0778 116.595 43.296L113.748 46.3546L113.042 45.6508Z" fill="#1F1F1F"/>
<path d="M120.121 53.8838L125.45 50.0294L126.011 50.8589L120.681 54.7133L120.121 53.8838ZM126.623 49.8087C126.514 49.6471 126.474 49.4683 126.504 49.2725C126.535 49.0791 126.627 48.9272 126.78 48.8168C126.932 48.7063 127.102 48.6692 127.288 48.7054C127.476 48.7439 127.625 48.8441 127.734 49.0057C127.843 49.1674 127.882 49.345 127.851 49.5384C127.821 49.7342 127.73 49.8873 127.577 49.9977C127.425 50.1081 127.255 50.1441 127.067 50.1055C126.88 50.0694 126.733 49.9704 126.623 49.8087Z" fill="#1F1F1F"/>
<path d="M125.437 63.9953C125.201 63.4098 125.126 62.8498 125.211 62.3151C125.299 61.782 125.528 61.3013 125.897 60.8731C126.27 60.4464 126.764 60.1005 127.38 59.8354C127.995 59.5704 128.583 59.4502 129.144 59.4748C129.708 59.5009 130.204 59.6616 130.632 59.9569C131.063 60.2537 131.389 60.6764 131.61 61.2249C131.737 61.5414 131.811 61.8763 131.831 62.2298C131.85 62.5833 131.794 62.9371 131.661 63.2914C131.531 63.6445 131.304 63.9788 130.981 64.2942C130.659 64.6096 130.217 64.888 129.656 65.1295L129.265 65.298L127.381 60.6146L128.179 60.2709L129.681 64.005C130.02 63.859 130.295 63.6601 130.506 63.4084C130.718 63.1594 130.85 62.8764 130.903 62.5596C130.957 62.2455 130.917 61.9196 130.781 61.5821C130.631 61.2103 130.411 60.9279 130.119 60.7349C129.831 60.5434 129.513 60.4374 129.165 60.4171C128.817 60.3967 128.478 60.4579 128.146 60.6005L127.614 60.8296C127.161 61.0251 126.808 61.2698 126.556 61.564C126.308 61.8596 126.159 62.1852 126.109 62.5408C126.062 62.8952 126.114 63.261 126.266 63.6381C126.365 63.8833 126.488 64.0902 126.635 64.2588C126.786 64.4289 126.96 64.5567 127.156 64.6422C127.355 64.7266 127.575 64.7634 127.816 64.7527L127.928 65.7624C127.587 65.7978 127.257 65.7528 126.938 65.6275C126.621 65.501 126.332 65.3005 126.071 65.0259C125.814 64.7502 125.602 64.4066 125.437 63.9953Z" fill="#1F1F1F"/>
<path d="M135.756 78.3483L129.001 76.8426L128.866 75.822L134.984 72.4969L135.127 73.5856L130.236 76.1135L130.245 76.1815L135.612 77.2597L135.756 78.3483Z" fill="#1F1F1F"/>
<path d="M129.027 89.8555C129.102 89.2224 129.304 88.6937 129.632 88.2695C129.962 87.8485 130.389 87.5455 130.912 87.3604C131.437 87.1786 132.028 87.1297 132.686 87.2138C133.343 87.2978 133.908 87.4946 134.38 87.8039C134.855 88.1165 135.206 88.5118 135.435 88.9898C135.666 89.471 135.746 90.0082 135.675 90.6014C135.635 90.9436 135.538 91.2744 135.387 91.5938C135.236 91.9132 135.019 92.1938 134.735 92.4355C134.454 92.6775 134.1 92.8537 133.671 92.9638C133.242 93.074 132.728 93.0908 132.129 93.0142L131.711 92.9608L132.316 87.8961L133.168 88.0051L132.686 92.0432C133.048 92.0895 133.38 92.0567 133.682 91.9447C133.984 91.8356 134.233 91.6561 134.429 91.4062C134.626 91.1592 134.746 90.8531 134.789 90.4881C134.837 90.086 134.782 89.7256 134.622 89.407C134.464 89.0915 134.24 88.8356 133.95 88.6392C133.659 88.4428 133.337 88.322 132.983 88.2767L132.415 88.2041C131.93 88.1421 131.509 88.1751 131.151 88.3031C130.796 88.4343 130.512 88.6427 130.3 88.9282C130.091 89.2141 129.961 89.561 129.913 89.9688C129.881 90.234 129.889 90.4781 129.936 90.7013C129.985 90.9276 130.074 91.1287 130.203 91.3044C130.335 91.4805 130.507 91.6256 130.72 91.7396L130.336 92.6807C130.025 92.5367 129.761 92.3279 129.545 92.0541C129.331 91.7807 129.178 91.4571 129.084 91.0831C128.993 90.7096 128.974 90.3003 129.027 89.8555Z" fill="#1F1F1F"/>
<path d="M127.027 100.12L133.048 102.466L132.712 103.391L131.802 103.036L131.779 103.101C132.035 103.331 132.202 103.63 132.28 104C132.357 104.37 132.328 104.741 132.192 105.114C132.167 105.184 132.133 105.272 132.092 105.376C132.052 105.48 132.019 105.559 131.994 105.611L131.053 105.244C131.072 105.215 131.111 105.145 131.169 105.035C131.229 104.928 131.282 104.812 131.328 104.685C131.438 104.382 131.475 104.088 131.439 103.802C131.404 103.52 131.305 103.268 131.141 103.047C130.978 102.829 130.761 102.667 130.489 102.562L126.679 101.077L127.027 100.12Z" fill="#1F1F1F"/>
<path d="M118.419 122.156L119.67 123.536L120.079 121.668L120.86 121.877L120.297 123.712L122.064 123.111L122.275 123.917L120.473 124.359L121.819 125.64L121.248 126.236L119.997 124.856L119.588 126.725L118.807 126.515L119.37 124.681L117.603 125.281L117.393 124.475L119.194 124.033L117.848 122.753L118.419 122.156Z" fill="#1F1F1F"/>
<path d="M99.8042 140.395L96.8228 132.179L97.8065 131.797L100.409 138.97L100.457 138.951L101.957 136.849L102.324 137.86L100.788 140.012L99.8042 140.395Z" fill="#1F1F1F"/>
<path d="M86.5309 143.717C86.1773 143.751 85.8174 143.72 85.451 143.623C85.0846 143.526 84.7405 143.337 84.4186 143.057C84.097 142.78 83.8219 142.385 83.5934 141.87C83.3648 141.356 83.2113 140.698 83.133 139.894C83.0572 139.117 83.0628 138.419 83.1497 137.8C83.2342 137.184 83.3922 136.655 83.624 136.214C83.8529 135.773 84.1504 135.425 84.5165 135.171C84.8799 134.917 85.3041 134.765 85.7892 134.715C86.2715 134.664 86.7113 134.716 87.1087 134.87C87.5036 135.028 87.8386 135.267 88.1136 135.59C88.3861 135.915 88.5785 136.305 88.6908 136.759L87.6645 136.867C87.5328 136.475 87.3168 136.162 87.0165 135.929C86.7136 135.698 86.335 135.607 85.8808 135.655C85.2162 135.724 84.7206 136.073 84.394 136.703C84.0645 137.333 83.9522 138.186 84.0572 139.263L84.1245 139.256C84.2582 139 84.4245 138.774 84.6235 138.578C84.8225 138.382 85.0492 138.223 85.3036 138.101C85.558 137.98 85.8338 137.904 86.131 137.873C86.6245 137.821 87.0895 137.898 87.5258 138.102C87.9596 138.31 88.3212 138.619 88.6104 139.029C88.8971 139.442 89.068 139.931 89.1229 140.495C89.1751 141.03 89.1051 141.532 88.9129 142.001C88.7182 142.473 88.4192 142.864 88.016 143.174C87.61 143.484 87.115 143.665 86.5309 143.717ZM86.4393 142.777C86.7926 142.741 87.1021 142.618 87.3678 142.409C87.631 142.203 87.8306 141.94 87.9666 141.621C88.1001 141.305 88.149 140.965 88.1135 140.6C88.078 140.236 87.9671 139.912 87.7809 139.629C87.5922 139.35 87.3518 139.136 87.0598 138.988C86.7653 138.844 86.4414 138.79 86.0881 138.826C85.8217 138.854 85.5787 138.933 85.359 139.062C85.1396 139.194 84.9534 139.362 84.8005 139.565C84.6449 139.771 84.5296 139.998 84.4545 140.244C84.3797 140.494 84.3549 140.748 84.3802 141.007C84.4135 141.349 84.5261 141.661 84.7179 141.943C84.9069 142.225 85.152 142.444 85.4532 142.6C85.7517 142.756 86.0804 142.815 86.4393 142.777Z" fill="#1F1F1F"/>
<path d="M74.5258 134.923L74.3916 135.687L71.0427 138.303C70.6498 138.609 70.3233 138.878 70.0631 139.11C69.8025 139.345 69.6 139.573 69.4557 139.794C69.3082 140.018 69.211 140.263 69.1643 140.529C69.1107 140.834 69.1359 141.112 69.2401 141.363C69.3416 141.613 69.5044 141.822 69.7285 141.99C69.9527 142.158 70.2179 142.27 70.5241 142.328C70.8497 142.389 71.146 142.373 71.4131 142.28C71.677 142.189 71.8967 142.033 72.0724 141.812C72.2453 141.59 72.3608 141.314 72.4189 140.982L73.3955 141.166C73.3061 141.676 73.1131 142.101 72.8165 142.443C72.52 142.785 72.1556 143.026 71.7233 143.167C71.2883 143.308 70.8239 143.332 70.33 143.239C69.8335 143.146 69.4123 142.955 69.0666 142.668C68.7209 142.381 68.4711 142.034 68.3173 141.628C68.1634 141.222 68.1258 140.795 68.2043 140.348C68.2604 140.028 68.3719 139.726 68.5387 139.442C68.7022 139.16 68.9547 138.858 69.2961 138.536C69.6343 138.216 70.0932 137.835 70.6726 137.391L72.9429 135.66L72.9548 135.592L69.0153 134.852L69.1793 133.918L74.5258 134.923Z" fill="#1F1F1F"/>
<path d="M58.662 129.896C59.2262 130.185 59.6305 130.591 59.8747 131.114C60.1176 131.639 60.1981 132.26 60.1159 132.977C60.0326 133.697 59.7835 134.49 59.3687 135.357C58.9564 136.218 58.4995 136.9 57.9979 137.402C57.4926 137.905 56.9645 138.216 56.4135 138.334C55.8588 138.454 55.3018 138.37 54.7426 138.083C54.1833 137.797 53.7829 137.39 53.5411 136.862C53.2957 136.335 53.2146 135.712 53.298 134.993C53.3776 134.274 53.6236 133.484 54.0359 132.623C54.4507 131.757 54.9095 131.071 55.4123 130.566C55.9138 130.064 56.4401 129.754 56.9911 129.636C57.5408 129.52 58.0977 129.607 58.662 129.896ZM58.2522 130.752C57.6929 130.466 57.1244 130.523 56.5465 130.925C55.9687 131.326 55.4314 132.046 54.9347 133.084C54.6043 133.774 54.3942 134.398 54.3043 134.956C54.2118 135.513 54.2371 135.986 54.38 136.376C54.5205 136.765 54.7755 137.054 55.145 137.243C55.6992 137.527 56.2684 137.465 56.8524 137.057C57.4352 136.651 57.9744 135.931 58.4699 134.896C58.8003 134.206 59.011 133.584 59.1022 133.03C59.1934 132.475 59.1681 132.005 59.0264 131.619C58.8823 131.232 58.6242 130.943 58.2522 130.752Z" fill="#1F1F1F"/>
<path d="M38.3578 118.06L36.8444 119.184L38.5777 119.815L38.2588 120.59L36.5819 119.806L36.8931 121.683L36.0873 121.807L35.9339 119.913L34.5016 121.145L34.0147 120.494L35.5281 119.37L33.7948 118.739L34.1137 117.963L35.7906 118.747L35.4794 116.871L36.2852 116.747L36.4386 118.641L37.8709 117.409L38.3578 118.06Z" fill="#1F1F1F"/>
</svg>
