<svg width="16" height="14" viewBox="0 0 16 14" fill="none" xmlns="http://www.w3.org/2000/svg">
<path d="M2.14547 10.3C2.22089 10.3 2.33667 10.2386 2.52963 10.1193C2.97519 9.84742 3.32778 9.29836 3.58038 8.57564C3.92946 7.57577 4.08558 6.2426 4.03471 4.83751C3.98384 3.46048 4.54517 2.12731 5.30122 0.995873C5.54503 0.631005 6.06604 0.195953 5.55908 0.195953C4.35221 0.195953 -1.58741 3.24821 0.405328 6.22504C2.31037 9.07209 1.81044 10.3 2.14547 10.3Z" fill="#E1AC7C"/>
<path d="M10.6987 0.997638C11.453 2.12908 12.0144 3.46402 11.9652 4.83927C11.9144 6.24261 12.0705 7.57755 12.4196 8.57743C12.6722 9.30014 13.0248 9.8492 13.4703 10.1211C13.665 10.2404 13.7808 10.3018 13.8545 10.3018C14.1878 10.3018 13.6896 9.0721 15.5946 6.22684C17.5873 3.25001 11.6477 0.197754 10.4408 0.197754C9.93217 0.197736 10.4549 0.632771 10.6987 0.997638Z" fill="#E1AC7C"/>
<path d="M3.92236 9.35627C4.01709 9.55274 4.11708 9.7492 4.22057 9.94392C5.40113 12.1559 5.25378 12.4524 5.25378 13.012C5.25378 13.5242 6.42556 13.8873 7.64647 12.9155V11.9156C7.19038 11.7209 6.63957 11.2192 6.63957 10.7701C6.63957 10.1983 7.24301 10.1123 7.98853 10.1123C7.99202 10.1123 7.99553 10.1123 7.99906 10.1123C7.99906 10.1123 8.00607 10.1123 8.00958 10.1123C8.7551 10.1123 9.35855 10.1983 9.35855 10.7701C9.35855 11.2192 8.80774 11.7209 8.35166 11.9156V12.9155C9.57958 13.8873 10.7443 13.5242 10.7443 13.012C10.7443 12.4506 10.597 12.1559 11.7776 9.94392C11.881 9.7492 11.981 9.55274 12.0758 9.35627C11.9267 9.04753 11.7986 8.69496 11.6933 8.30554C11.4232 7.30917 11.3039 6.10228 11.3513 4.81823C11.3688 4.33234 11.3022 3.82537 11.1513 3.30964C11.0285 2.88864 10.8513 2.46415 10.6233 2.04489C10.2409 1.33971 9.78657 0.820476 9.78657 0.820476C9.64273 0.608204 9.60765 0.418771 9.61642 0.266141C8.7253 -0.0338226 7.99906 0.00126083 7.99906 0.00126083C7.99555 0.00126083 7.27283 -0.0338226 6.38171 0.266141C6.39225 0.418753 6.3554 0.608204 6.21156 0.820476C6.21156 0.820476 5.75724 1.33971 5.37483 2.04489C5.14679 2.46413 4.9696 2.8904 4.84681 3.30964C4.69595 3.82363 4.62931 4.33234 4.64685 4.81823C4.6942 6.10405 4.57491 7.30917 4.30479 8.30554C4.19952 8.69495 4.07147 9.04578 3.92236 9.35627ZM9.92691 4.66211C10.383 4.66211 10.7531 5.03224 10.7531 5.48832C10.7531 5.94441 10.383 6.31455 9.92691 6.31455C9.47082 6.31455 9.10067 5.94441 9.10067 5.48832C9.10067 5.03224 9.47082 4.66211 9.92691 4.66211ZM6.07122 4.66211C6.52731 4.66211 6.89745 5.03224 6.89745 5.48832C6.89745 5.94441 6.52731 6.31455 6.07122 6.31455C5.61514 6.31455 5.24501 5.94441 5.24501 5.48832C5.24501 5.03224 5.61514 4.66211 6.07122 4.66211Z" fill="#E1AC7C"/>
</svg>
