<svg width="56" height="48" viewBox="0 0 56 48" fill="none" xmlns="http://www.w3.org/2000/svg">
<path fill-rule="evenodd" clip-rule="evenodd" d="M14.7722 34.8037C14.41 34.1222 14.0601 33.4346 13.7285 32.7469C14.2504 31.6602 14.6986 30.4323 15.067 29.0694C16.0124 25.5821 16.4299 21.3642 16.2642 16.8638C16.2028 15.1632 16.4361 13.3827 16.9641 11.5838C17.3939 10.1164 18.014 8.62447 18.8122 7.1571C20.1506 4.68899 21.7407 2.87167 21.7407 2.87167C22.2441 2.12871 22.3731 1.46564 22.3362 0.931492C25.3932 -0.0975372 27.884 -1.11547e-09 27.9932 0.00427788C27.9955 0.00436453 27.9967 0.00441292 27.9969 0.00441292C27.9969 0.00441292 30.5388 -0.118379 33.6577 0.931492C33.627 1.4657 33.7498 2.12871 34.2532 2.87167C34.2532 2.87167 35.8433 4.68899 37.1818 7.1571C37.9799 8.62453 38.6001 10.1102 39.0299 11.5838C39.5578 13.3888 39.7911 15.1632 39.7297 16.8638C39.564 21.358 39.9815 25.5821 40.9269 29.0694C41.2953 30.4324 41.7436 31.6664 42.2654 32.7469C41.9339 33.4346 41.5839 34.1222 41.2217 34.8037C37.5061 41.7657 37.5487 43.3012 37.595 44.9686C37.6002 45.1554 37.6055 45.3439 37.6055 45.5419C37.6055 47.3346 33.5288 48.6055 29.2311 45.2042V41.7046C30.8274 41.0231 32.7552 39.2672 32.7552 37.6955C32.7552 35.6939 30.6431 35.3931 28.0338 35.3931H27.9969H27.9601C25.3508 35.3931 23.2388 35.6939 23.2388 37.6955C23.2388 39.2672 25.1666 41.0231 26.7629 41.7046V45.2042C22.4897 48.6055 18.3885 47.3346 18.3885 45.5419C18.3885 45.3446 18.3937 45.1567 18.3989 44.9704C18.4452 43.3064 18.4881 41.7661 14.7722 34.8037ZM37.6362 19.2091C37.6362 17.6128 36.3407 16.3174 34.7444 16.3174C33.1481 16.3174 31.8526 17.6128 31.8526 19.2091C31.8526 20.8054 33.1481 22.1009 34.7444 22.1009C36.3407 22.1009 37.6362 20.8054 37.6362 19.2091ZM24.1413 19.2091C24.1413 17.6128 22.8458 16.3174 21.2495 16.3174C19.6532 16.3174 18.3578 17.6128 18.3578 19.2091C18.3578 20.8054 19.6532 22.1009 21.2495 22.1009C22.8458 22.1009 24.1413 20.8054 24.1413 19.2091ZM7.50913 36.05C7.77313 36.05 8.17834 35.8351 8.8537 35.4176C10.4132 34.4659 11.6472 32.5442 12.5313 30.0147C13.7531 26.5151 14.2995 21.849 14.1215 16.9312C13.9434 12.1116 15.9081 7.44555 18.5543 3.48551C18.7645 3.17092 19.0336 2.84142 19.2932 2.52345L19.2933 2.52343C20.0877 1.55066 20.794 0.685791 19.4568 0.685791C15.2327 0.685791 -5.55593 11.3687 1.41865 21.7876C5.92116 28.5165 6.58534 32.6613 6.90299 34.6436C7.05574 35.5968 7.12836 36.05 7.50913 36.05ZM37.4459 3.49173C40.0859 7.45177 42.0506 12.1241 41.8786 16.9374C41.7006 21.8491 42.247 26.5214 43.4687 30.021C44.3528 32.5505 45.5869 34.4722 47.1464 35.4238C47.8279 35.8413 48.233 36.0562 48.4909 36.0562C48.8689 36.0562 48.9413 35.6041 49.0935 34.6539C49.4107 32.6724 50.0748 28.5248 54.5813 21.7939C61.5559 11.375 40.7673 0.692139 36.5432 0.692139C35.2025 0.692092 35.909 1.55554 36.7041 2.52735C36.9648 2.84603 37.2351 3.17637 37.4459 3.49173Z" fill="#DB9B61"/>
</svg>
