<svg width="1920" height="692" viewBox="0 0 1920 692" fill="none" xmlns="http://www.w3.org/2000/svg">
<mask id="mask0_43_154" style="mask-type:alpha" maskUnits="userSpaceOnUse" x="0" y="-1" width="1920" height="693">
<path d="M1878.59 93.0115C1748.99 93.0115 1645.56 69.5068 1546.07 46.6737C1445.7 23.6726 1341.4 1.1484e-05 1210.05 0C1078.7 -1.1483e-05 974.839 23.6726 874.033 46.6736C774.101 69.5067 671.114 93.0114 541.507 93.0114C411.896 93.0114 308.476 69.5067 208.976 46.6735C155.306 34.4175 100.316 21.8257 41.4058 12.9275" stroke="#EAC5A3" stroke-width="0.2" stroke-miterlimit="10"/>
<path d="M1878.59 106.023C1748.99 106.023 1645.56 82.5185 1546.07 59.6854C1445.7 36.6843 1341.4 13.0117 1210.05 13.0117C1078.7 13.0117 974.839 36.6843 874.033 59.6853C774.101 82.5184 671.114 106.023 541.507 106.023C411.896 106.023 308.476 82.5184 208.976 59.6852C155.306 47.4292 100.316 34.8374 41.4058 25.9392" stroke="#EAC5A3" stroke-width="0.2" stroke-miterlimit="10"/>
<path d="M1878.59 119.035C1748.99 119.035 1645.56 95.5302 1546.07 72.6971C1445.7 49.696 1341.4 26.0234 1210.05 26.0234C1078.7 26.0234 974.839 49.696 874.033 72.697C774.101 95.5301 671.114 119.035 541.507 119.035C411.896 119.035 308.476 95.5301 208.976 72.6969C155.306 60.4409 100.316 47.8491 41.4058 38.9509" stroke="#EAC5A3" stroke-width="0.2" stroke-miterlimit="10"/>
<path d="M1878.59 132.046C1748.99 132.046 1645.56 108.541 1546.07 85.7079C1445.7 62.7068 1341.4 39.0342 1210.05 39.0342C1078.7 39.0342 974.839 62.7068 874.033 85.7078C774.101 108.541 671.114 132.046 541.507 132.046C411.896 132.046 308.476 108.541 208.976 85.7077C155.306 73.4517 100.316 60.8599 41.4058 51.9617" stroke="#EAC5A3" stroke-width="0.2" stroke-miterlimit="10"/>
<path d="M1878.59 145.057C1748.99 145.057 1645.56 121.553 1546.07 98.7196C1445.7 75.7185 1341.4 52.0459 1210.05 52.0459C1078.7 52.0459 974.839 75.7185 874.033 98.7195C774.101 121.553 671.114 145.057 541.507 145.057C411.896 145.057 308.476 121.553 208.976 98.7194C155.306 86.4634 100.316 73.8716 41.4058 64.9734" stroke="#EAC5A3" stroke-width="0.2" stroke-miterlimit="10"/>
<path d="M1878.59 158.069C1748.99 158.069 1645.56 134.564 1546.07 111.731C1445.7 88.7302 1341.4 65.0576 1210.05 65.0576C1078.7 65.0576 974.839 88.7302 874.033 111.731C774.101 134.564 671.114 158.069 541.507 158.069C411.896 158.069 308.476 134.564 208.976 111.731C155.306 99.4751 100.316 86.8833 41.4058 77.9851" stroke="#EAC5A3" stroke-width="0.2" stroke-miterlimit="10"/>
<path d="M1878.59 171.081C1748.99 171.081 1645.56 147.576 1546.07 124.743C1445.7 101.742 1341.4 78.0693 1210.05 78.0693C1078.7 78.0693 974.839 101.742 874.033 124.743C774.101 147.576 671.114 171.081 541.507 171.081C411.896 171.081 308.476 147.576 208.976 124.743C155.306 112.487 100.316 99.895 41.4058 90.9968" stroke="#EAC5A3" stroke-width="0.2" stroke-miterlimit="10"/>
<path d="M1878.59 184.092C1748.99 184.092 1645.56 160.587 1546.07 137.754C1445.7 114.753 1341.4 91.0801 1210.05 91.0801C1078.7 91.0801 974.839 114.753 874.033 137.754C774.101 160.587 671.114 184.091 541.507 184.091C411.896 184.091 308.476 160.587 208.976 137.754C155.306 125.498 100.316 112.906 41.4058 104.008" stroke="#EAC5A3" stroke-width="0.2" stroke-miterlimit="10"/>
<path d="M1878.59 197.103C1748.99 197.103 1645.56 173.599 1546.07 150.765C1445.7 127.764 1341.4 104.092 1210.05 104.092C1078.7 104.092 974.839 127.764 874.033 150.765C774.101 173.598 671.114 197.103 541.507 197.103C411.896 197.103 308.476 173.598 208.976 150.765C155.306 138.509 100.316 125.917 41.4058 117.019" stroke="#EAC5A3" stroke-width="0.2" stroke-miterlimit="10"/>
<path d="M1878.59 210.115C1748.99 210.115 1645.56 186.61 1546.07 163.777C1445.7 140.776 1341.4 117.104 1210.05 117.104C1078.7 117.104 974.839 140.776 874.033 163.777C774.101 186.61 671.114 210.115 541.507 210.115C411.896 210.115 308.476 186.61 208.976 163.777C155.306 151.521 100.316 138.929 41.4058 130.031" stroke="#EAC5A3" stroke-width="0.2" stroke-miterlimit="10"/>
<path d="M1878.59 223.127C1748.99 223.127 1645.56 199.622 1546.07 176.789C1445.7 153.788 1341.4 130.115 1210.05 130.115C1078.7 130.115 974.839 153.788 874.033 176.789C774.101 199.622 671.114 223.127 541.507 223.127C411.896 223.127 308.476 199.622 208.976 176.789C155.306 164.533 100.316 151.941 41.4058 143.043" stroke="#EAC5A3" stroke-width="0.2" stroke-miterlimit="10"/>
<path d="M1878.59 236.137C1748.99 236.137 1645.56 212.633 1546.07 189.8C1445.7 166.799 1341.4 143.126 1210.05 143.126C1078.7 143.126 974.839 166.799 874.033 189.8C774.101 212.633 671.114 236.137 541.507 236.137C411.896 236.137 308.476 212.633 208.976 189.799C155.306 177.543 100.316 164.952 41.4058 156.053" stroke="#EAC5A3" stroke-width="0.2" stroke-miterlimit="10"/>
<path d="M1878.59 249.149C1748.99 249.149 1645.56 225.644 1546.07 202.811C1445.7 179.81 1341.4 156.138 1210.05 156.138C1078.7 156.138 974.839 179.81 874.033 202.811C774.101 225.644 671.114 249.149 541.507 249.149C411.896 249.149 308.476 225.644 208.976 202.811C155.306 190.555 100.316 177.963 41.4058 169.065" stroke="#EAC5A3" stroke-width="0.2" stroke-miterlimit="10"/>
<path d="M1878.59 262.161C1748.99 262.161 1645.56 238.656 1546.07 215.823C1445.7 192.822 1341.4 169.149 1210.05 169.149C1078.7 169.149 974.839 192.822 874.033 215.823C774.101 238.656 671.114 262.161 541.507 262.161C411.896 262.161 308.476 238.656 208.976 215.823C155.306 203.567 100.316 190.975 41.4058 182.077" stroke="#EAC5A3" stroke-width="0.2" stroke-miterlimit="10"/>
<path d="M1878.59 275.173C1748.99 275.173 1645.56 251.668 1546.07 228.835C1445.7 205.834 1341.4 182.161 1210.05 182.161C1078.7 182.161 974.839 205.834 874.033 228.835C774.101 251.668 671.114 275.173 541.507 275.173C411.896 275.173 308.476 251.668 208.976 228.835C155.306 216.579 100.316 203.987 41.4058 195.089" stroke="#EAC5A3" stroke-width="0.2" stroke-miterlimit="10"/>
<path d="M1878.59 288.183C1748.99 288.183 1645.56 264.679 1546.07 241.846C1445.7 218.844 1341.4 195.172 1210.05 195.172C1078.7 195.172 974.839 218.844 874.033 241.845C774.101 264.679 671.114 288.183 541.507 288.183C411.896 288.183 308.476 264.679 208.976 241.845C155.306 229.589 100.316 216.998 41.4058 208.099" stroke="#EAC5A3" stroke-width="0.2" stroke-miterlimit="10"/>
<path d="M1878.59 301.195C1748.99 301.195 1645.56 277.69 1546.07 254.857C1445.7 231.856 1341.4 208.184 1210.05 208.184C1078.7 208.184 974.839 231.856 874.033 254.857C774.101 277.69 671.114 301.195 541.507 301.195C411.896 301.195 308.476 277.69 208.976 254.857C155.306 242.601 100.316 230.009 41.4058 221.111" stroke="#EAC5A3" stroke-width="0.2" stroke-miterlimit="10"/>
<path d="M1878.59 314.207C1748.99 314.207 1645.56 290.702 1546.07 267.869C1445.7 244.868 1341.4 221.195 1210.05 221.195C1078.7 221.195 974.839 244.868 874.033 267.869C774.101 290.702 671.114 314.207 541.507 314.207C411.896 314.207 308.476 290.702 208.976 267.869C155.306 255.613 100.316 243.021 41.4058 234.123" stroke="#EAC5A3" stroke-width="0.2" stroke-miterlimit="10"/>
<path d="M1878.59 327.219C1748.99 327.219 1645.56 303.714 1546.07 280.881C1445.7 257.88 1341.4 234.207 1210.05 234.207C1078.7 234.207 974.839 257.88 874.033 280.881C774.101 303.714 671.114 327.218 541.507 327.218C411.896 327.218 308.476 303.714 208.976 280.881C155.306 268.625 100.316 256.033 41.4058 247.135" stroke="#EAC5A3" stroke-width="0.2" stroke-miterlimit="10"/>
<path d="M1878.59 340.229C1748.99 340.229 1645.56 316.725 1546.07 293.891C1445.7 270.89 1341.4 247.218 1210.05 247.218C1078.7 247.218 974.839 270.89 874.033 293.891C774.101 316.724 671.114 340.229 541.507 340.229C411.896 340.229 308.476 316.724 208.976 293.891C155.306 281.635 100.316 269.043 41.4058 260.145" stroke="#EAC5A3" stroke-width="0.2" stroke-miterlimit="10"/>
<path d="M1878.59 353.241C1748.99 353.241 1645.56 329.736 1546.07 306.903C1445.7 283.902 1341.4 260.23 1210.05 260.229C1078.7 260.229 974.839 283.902 874.033 306.903C774.101 329.736 671.114 353.241 541.507 353.241C411.896 353.241 308.476 329.736 208.976 306.903C155.306 294.647 100.316 282.055 41.4058 273.157" stroke="#EAC5A3" stroke-width="0.2" stroke-miterlimit="10"/>
<path d="M1878.59 366.253C1748.99 366.253 1645.56 342.748 1546.07 319.915C1445.7 296.914 1341.4 273.241 1210.05 273.241C1078.7 273.241 974.839 296.914 874.033 319.915C774.101 342.748 671.114 366.253 541.507 366.253C411.896 366.253 308.476 342.748 208.976 319.915C155.306 307.659 100.316 295.067 41.4058 286.169" stroke="#EAC5A3" stroke-width="0.2" stroke-miterlimit="10"/>
<path d="M1878.59 379.264C1748.99 379.264 1645.56 355.76 1546.07 332.927C1445.7 309.926 1341.4 286.253 1210.05 286.253C1078.7 286.253 974.839 309.926 874.033 332.927C774.101 355.76 671.114 379.264 541.507 379.264C411.896 379.264 308.476 355.76 208.976 332.926C155.306 320.67 100.316 308.079 41.4058 299.18" stroke="#EAC5A3" stroke-width="0.2" stroke-miterlimit="10"/>
<path d="M1878.59 392.275C1748.99 392.275 1645.56 368.77 1546.07 345.937C1445.7 322.936 1341.4 299.264 1210.05 299.264C1078.7 299.264 974.839 322.936 874.033 345.937C774.101 368.77 671.114 392.275 541.507 392.275C411.896 392.275 308.476 368.77 208.976 345.937C155.306 333.681 100.316 321.089 41.4058 312.191" stroke="#EAC5A3" stroke-width="0.2" stroke-miterlimit="10"/>
<path d="M1878.59 405.287C1748.99 405.287 1645.56 381.782 1546.07 358.949C1445.7 335.948 1341.4 312.275 1210.05 312.275C1078.7 312.275 974.839 335.948 874.033 358.949C774.101 381.782 671.114 405.287 541.507 405.287C411.896 405.287 308.476 381.782 208.976 358.949C155.306 346.693 100.316 334.101 41.4058 325.203" stroke="#EAC5A3" stroke-width="0.2" stroke-miterlimit="10"/>
<path d="M1878.59 418.299C1748.99 418.299 1645.56 394.794 1546.07 371.961C1445.7 348.96 1341.4 325.287 1210.05 325.287C1078.7 325.287 974.839 348.96 874.033 371.961C774.101 394.794 671.114 418.298 541.507 418.298C411.896 418.298 308.476 394.794 208.976 371.961C155.306 359.705 100.316 347.113 41.4058 338.215" stroke="#EAC5A3" stroke-width="0.2" stroke-miterlimit="10"/>
<path d="M1878.59 431.31C1748.99 431.31 1645.56 407.806 1546.07 384.973C1445.7 361.971 1341.4 338.299 1210.05 338.299C1078.7 338.299 974.839 361.971 874.033 384.972C774.101 407.806 671.114 431.31 541.507 431.31C411.896 431.31 308.476 407.806 208.976 384.972C155.306 372.716 100.316 360.125 41.4058 351.226" stroke="#EAC5A3" stroke-width="0.2" stroke-miterlimit="10"/>
<path d="M1878.59 444.321C1748.99 444.321 1645.56 420.816 1546.07 397.983C1445.7 374.982 1341.4 351.31 1210.05 351.31C1078.7 351.31 974.839 374.982 874.033 397.983C774.101 420.816 671.114 444.321 541.507 444.321C411.896 444.321 308.476 420.816 208.976 397.983C155.306 385.727 100.316 373.135 41.4058 364.237" stroke="#EAC5A3" stroke-width="0.2" stroke-miterlimit="10"/>
<path d="M1878.59 457.333C1748.99 457.333 1645.56 433.828 1546.07 410.995C1445.7 387.994 1341.4 364.321 1210.05 364.321C1078.7 364.321 974.839 387.994 874.033 410.995C774.101 433.828 671.114 457.333 541.507 457.333C411.896 457.333 308.476 433.828 208.976 410.995C155.306 398.739 100.316 386.147 41.4058 377.249" stroke="#EAC5A3" stroke-width="0.2" stroke-miterlimit="10"/>
<path d="M1878.59 470.344C1748.99 470.344 1645.56 446.84 1546.07 424.007C1445.7 401.006 1341.4 377.333 1210.05 377.333C1078.7 377.333 974.839 401.006 874.033 424.007C774.101 446.84 671.114 470.344 541.507 470.344C411.896 470.344 308.476 446.84 208.976 424.006C155.306 411.75 100.316 399.159 41.4058 390.26" stroke="#EAC5A3" stroke-width="0.2" stroke-miterlimit="10"/>
<path d="M1878.59 483.356C1748.99 483.356 1645.56 459.852 1546.07 437.018C1445.7 414.017 1341.4 390.345 1210.05 390.345C1078.7 390.345 974.839 414.017 874.033 437.018C774.101 459.851 671.114 483.356 541.507 483.356C411.896 483.356 308.476 459.851 208.976 437.018C155.306 424.762 100.316 412.17 41.4058 403.272" stroke="#EAC5A3" stroke-width="0.2" stroke-miterlimit="10"/>
<path d="M1878.59 496.367C1748.99 496.367 1645.56 472.862 1546.07 450.029C1445.7 427.028 1341.4 403.355 1210.05 403.355C1078.7 403.355 974.839 427.028 874.033 450.029C774.101 472.862 671.114 496.367 541.507 496.367C411.896 496.367 308.476 472.862 208.976 450.029C155.306 437.773 100.316 425.181 41.4058 416.283" stroke="#EAC5A3" stroke-width="0.2" stroke-miterlimit="10"/>
<path d="M1878.59 509.379C1748.99 509.379 1645.56 485.874 1546.07 463.041C1445.7 440.04 1341.4 416.367 1210.05 416.367C1078.7 416.367 974.839 440.04 874.033 463.041C774.101 485.874 671.114 509.379 541.507 509.379C411.896 509.379 308.476 485.874 208.976 463.041C155.306 450.785 100.316 438.193 41.4058 429.295" stroke="#EAC5A3" stroke-width="0.2" stroke-miterlimit="10"/>
<path d="M1878.59 522.39C1748.99 522.39 1645.56 498.886 1546.07 476.053C1445.7 453.051 1341.4 429.379 1210.05 429.379C1078.7 429.379 974.839 453.051 874.033 476.052C774.101 498.886 671.114 522.39 541.507 522.39C411.896 522.39 308.476 498.886 208.976 476.052C155.306 463.796 100.316 451.205 41.4058 442.306" stroke="#EAC5A3" stroke-width="0.2" stroke-miterlimit="10"/>
<path d="M1878.59 535.402C1748.99 535.402 1645.56 511.897 1546.07 489.064C1445.7 466.063 1341.4 442.391 1210.05 442.391C1078.7 442.391 974.839 466.063 874.033 489.064C774.101 511.897 671.114 535.402 541.507 535.402C411.896 535.402 308.476 511.897 208.976 489.064C155.306 476.808 100.316 464.216 41.4058 455.318" stroke="#EAC5A3" stroke-width="0.2" stroke-miterlimit="10"/>
<path d="M1878.59 548.413C1748.99 548.413 1645.56 524.908 1546.07 502.075C1445.7 479.074 1341.4 455.401 1210.05 455.401C1078.7 455.401 974.839 479.074 874.033 502.075C774.101 524.908 671.114 548.413 541.507 548.413C411.896 548.413 308.476 524.908 208.976 502.075C155.306 489.819 100.316 477.227 41.4058 468.329" stroke="#EAC5A3" stroke-width="0.2" stroke-miterlimit="10"/>
<path d="M1878.59 561.425C1748.99 561.425 1645.56 537.92 1546.07 515.087C1445.7 492.086 1341.4 468.413 1210.05 468.413C1078.7 468.413 974.839 492.086 874.033 515.087C774.101 537.92 671.114 561.424 541.507 561.424C411.896 561.424 308.476 537.92 208.976 515.087C155.306 502.831 100.316 490.239 41.4058 481.341" stroke="#EAC5A3" stroke-width="0.2" stroke-miterlimit="10"/>
<path d="M1878.59 574.436C1748.99 574.436 1645.56 550.932 1546.07 528.098C1445.7 505.097 1341.4 481.425 1210.05 481.425C1078.7 481.425 974.839 505.097 874.033 528.098C774.101 550.931 671.114 574.436 541.507 574.436C411.896 574.436 308.476 550.931 208.976 528.098C155.306 515.842 100.316 503.25 41.4058 494.352" stroke="#EAC5A3" stroke-width="0.2" stroke-miterlimit="10"/>
<path d="M1878.59 587.448C1748.99 587.448 1645.56 563.943 1546.07 541.11C1445.7 518.109 1341.4 494.437 1210.05 494.437C1078.7 494.437 974.839 518.109 874.033 541.11C774.101 563.943 671.114 587.448 541.507 587.448C411.896 587.448 308.476 563.943 208.976 541.11C155.306 528.854 100.316 516.262 41.4058 507.364" stroke="#EAC5A3" stroke-width="0.2" stroke-miterlimit="10"/>
<path d="M1878.59 600.459C1748.99 600.459 1645.56 576.954 1546.07 554.121C1445.7 531.12 1341.4 507.447 1210.05 507.447C1078.7 507.447 974.839 531.12 874.033 554.121C774.101 576.954 671.114 600.459 541.507 600.459C411.896 600.459 308.476 576.954 208.976 554.121C155.306 541.865 100.316 529.273 41.4058 520.375" stroke="#EAC5A3" stroke-width="0.2" stroke-miterlimit="10"/>
<path d="M1878.59 613.47C1748.99 613.47 1645.56 589.966 1546.07 567.133C1445.7 544.132 1341.4 520.459 1210.05 520.459C1078.7 520.459 974.839 544.132 874.033 567.133C774.101 589.966 671.114 613.47 541.507 613.47C411.896 613.47 308.476 589.966 208.976 567.132C155.306 554.876 100.316 542.285 41.4058 533.386" stroke="#EAC5A3" stroke-width="0.2" stroke-miterlimit="10"/>
<path d="M1878.59 626.482C1748.99 626.482 1645.56 602.977 1546.07 580.144C1445.7 557.143 1341.4 533.471 1210.05 533.471C1078.7 533.471 974.839 557.143 874.033 580.144C774.101 602.977 671.114 626.482 541.507 626.482C411.896 626.482 308.476 602.977 208.976 580.144C155.306 567.888 100.316 555.296 41.4058 546.398" stroke="#EAC5A3" stroke-width="0.2" stroke-miterlimit="10"/>
<path d="M1878.59 639.494C1748.99 639.494 1645.56 615.989 1546.07 593.156C1445.7 570.155 1341.4 546.482 1210.05 546.482C1078.7 546.482 974.839 570.155 874.033 593.156C774.101 615.989 671.114 639.494 541.507 639.494C411.896 639.494 308.476 615.989 208.976 593.156C155.306 580.9 100.316 568.308 41.4058 559.41" stroke="#EAC5A3" stroke-width="0.2" stroke-miterlimit="10"/>
<path d="M1878.59 652.505C1748.99 652.505 1645.56 629 1546.07 606.167C1445.7 583.166 1341.4 559.493 1210.05 559.493C1078.7 559.493 974.839 583.166 874.033 606.167C774.101 629 671.114 652.505 541.507 652.505C411.896 652.505 308.476 629 208.976 606.167C155.306 593.911 100.316 581.319 41.4058 572.421" stroke="#EAC5A3" stroke-width="0.2" stroke-miterlimit="10"/>
<path d="M1878.59 665.516C1748.99 665.516 1645.56 642.012 1546.07 619.179C1445.7 596.177 1341.4 572.505 1210.05 572.505C1078.7 572.505 974.839 596.177 874.033 619.178C774.101 642.012 671.114 665.516 541.507 665.516C411.896 665.516 308.476 642.012 208.976 619.178C155.306 606.922 100.316 594.331 41.4058 585.432" stroke="#EAC5A3" stroke-width="0.2" stroke-miterlimit="10"/>
<path d="M1878.59 678.528C1748.99 678.528 1645.56 655.023 1546.07 632.19C1445.7 609.189 1341.4 585.517 1210.05 585.517C1078.7 585.517 974.839 609.189 874.033 632.19C774.101 655.023 671.114 678.528 541.507 678.528C411.896 678.528 308.476 655.023 208.976 632.19C155.306 619.934 100.316 607.342 41.4058 598.444" stroke="#EAC5A3" stroke-width="0.2" stroke-miterlimit="10"/>
<path d="M1878.59 691.54C1748.99 691.54 1645.56 668.035 1546.07 645.202C1445.7 622.201 1341.4 598.528 1210.05 598.528C1078.7 598.528 974.839 622.201 874.033 645.202C774.101 668.035 671.114 691.54 541.507 691.54C411.896 691.54 308.476 668.035 208.976 645.202C155.306 632.946 100.316 620.354 41.4058 611.456" stroke="#EAC5A3" stroke-width="0.2" stroke-miterlimit="10"/>
</mask>
<g mask="url(#mask0_43_154)">
<rect x="41" width="1883" height="692" fill="url(#paint0_linear_43_154)"/>
</g>
<defs>
<linearGradient id="paint0_linear_43_154" x1="41" y1="298.5" x2="1650.78" y2="348.029" gradientUnits="userSpaceOnUse">
<stop stop-color="#EAC5A3"/>
<stop offset="1" stop-color="#EAC5A3" stop-opacity="0"/>
</linearGradient>
</defs>
</svg>
