<svg width="149" height="30" viewBox="0 0 149 30" fill="none" xmlns="http://www.w3.org/2000/svg">
<path d="M20.2257 22.4987C20.813 24.3014 21.0652 25.2425 20.8374 26.0926C20.3876 27.7715 18.8922 28.2434 17.1716 27.7823C16.4131 27.5791 15.9238 27.4469 14.8548 26.4869C14.8548 26.4869 14.245 25.5558 12.3491 25.1267C10.4749 24.5462 9.47848 25.056 9.47848 25.056C8.07285 25.3524 7.60253 25.2193 6.84504 25.0163C5.1244 24.5553 4.06406 23.3997 4.51418 21.7199C4.74197 20.8697 5.43219 20.1822 6.84192 18.9136C6.84192 18.9136 9.54856 16.36 11.5693 15.3589C13.029 14.6369 14.7506 15.1023 14.7506 15.1023L15.282 15.2447L15.2821 15.2442C15.2821 15.2442 17.0812 15.7217 17.9102 17.058C19.0951 18.9739 20.2255 22.4992 20.2257 22.4987ZM11.3606 12.0012C13.1595 12.4833 15.2121 10.6554 15.9453 7.91891C16.6785 5.18246 15.8149 2.57317 14.016 2.09115C12.217 1.60913 10.1645 3.43703 9.43124 6.17348C8.69801 8.90993 9.56164 11.5192 11.3606 12.0012ZM6.95334 15.9637C8.43932 15.7214 9.30949 13.6835 8.89635 11.4117C8.48321 9.13981 6.94397 7.49417 5.45812 7.73604C3.97227 7.97791 3.10245 10.0164 3.51511 12.2881C3.92825 14.56 5.46761 16.2051 6.95334 15.9637ZM18.933 14.0303C20.732 14.5123 22.785 12.6845 23.5182 9.94808C24.2515 7.21163 23.3874 4.60221 21.5884 4.12019C19.7895 3.63818 17.737 5.46607 17.0037 8.20252C16.2705 10.939 17.1341 13.5483 18.933 14.0303ZM26.1779 13.2874C25.0117 12.3344 22.8564 12.9901 21.3625 14.7515C19.8687 16.5128 19.6033 18.7128 20.7695 19.6658C21.9359 20.6183 24.0912 19.9626 25.5849 18.2017C27.0787 16.4408 27.3441 14.2404 26.1779 13.2874Z" fill="#DB9B61"/>
<path d="M52.2254 22.4987C52.8127 24.3014 53.065 25.2425 52.8372 26.0926C52.3873 27.7715 50.892 28.2434 49.1713 27.7823C48.4129 27.5791 47.9235 27.4469 46.8546 26.4869C46.8546 26.4869 46.2448 25.5558 44.3488 25.1267C42.4747 24.5462 41.4782 25.056 41.4782 25.056C40.0726 25.3524 39.6023 25.2193 38.8448 25.0163C37.1242 24.5553 36.0638 23.3997 36.5139 21.7199C36.7417 20.8697 37.4319 20.1822 38.8417 18.9136C38.8417 18.9136 41.5483 16.36 43.569 15.3589C45.0288 14.6369 46.7503 15.1023 46.7503 15.1023L47.2817 15.2447L47.2819 15.2442C47.2819 15.2442 49.081 15.7217 49.91 17.058C51.0949 18.9739 52.2253 22.4992 52.2254 22.4987ZM43.3603 12.0012C45.1592 12.4833 47.2118 10.6554 47.945 7.91891C48.6783 5.18246 47.8146 2.57317 46.0157 2.09115C44.2168 1.60913 42.1642 3.43703 41.431 6.17348C40.6978 8.90993 41.5614 11.5192 43.3603 12.0012ZM38.9531 15.9637C40.4391 15.7214 41.3092 13.6835 40.8961 11.4117C40.483 9.13981 38.9437 7.49417 37.4579 7.73604C35.972 7.97791 35.1022 10.0164 35.5149 12.2881C35.928 14.56 37.4674 16.2051 38.9531 15.9637ZM50.9328 14.0303C52.7317 14.5123 54.7848 12.6845 55.518 9.94808C56.2512 7.21163 55.3871 4.60221 53.5882 4.12019C51.7893 3.63818 49.7367 5.46607 49.0035 8.20252C48.2703 10.939 49.1339 13.5483 50.9328 14.0303ZM58.1777 13.2874C57.0115 12.3344 54.8561 12.9901 53.3623 14.7515C51.8684 16.5128 51.6031 18.7128 52.7693 19.6658C53.9356 20.6183 56.091 19.9626 57.5847 18.2017C59.0784 16.4408 59.3439 14.2404 58.1777 13.2874Z" fill="#DB9B61"/>
<path d="M81.2254 22.4987C81.8127 24.3014 82.065 25.2425 81.8372 26.0926C81.3873 27.7715 79.892 28.2434 78.1713 27.7823C77.4129 27.5791 76.9235 27.4469 75.8546 26.4869C75.8546 26.4869 75.2448 25.5558 73.3488 25.1267C71.4747 24.5462 70.4782 25.056 70.4782 25.056C69.0726 25.3524 68.6023 25.2193 67.8448 25.0163C66.1242 24.5553 65.0638 23.3997 65.5139 21.7199C65.7417 20.8697 66.4319 20.1822 67.8417 18.9136C67.8417 18.9136 70.5483 16.36 72.569 15.3589C74.0288 14.6369 75.7503 15.1023 75.7503 15.1023L76.2817 15.2447L76.2819 15.2442C76.2819 15.2442 78.081 15.7217 78.91 17.058C80.0949 18.9739 81.2253 22.4992 81.2254 22.4987ZM72.3603 12.0012C74.1592 12.4833 76.2118 10.6554 76.945 7.91891C77.6783 5.18246 76.8146 2.57317 75.0157 2.09115C73.2168 1.60913 71.1642 3.43703 70.431 6.17348C69.6978 8.90993 70.5614 11.5192 72.3603 12.0012ZM67.9531 15.9637C69.4391 15.7214 70.3092 13.6835 69.8961 11.4117C69.483 9.13981 67.9437 7.49417 66.4579 7.73604C64.972 7.97791 64.1022 10.0164 64.5149 12.2881C64.928 14.56 66.4674 16.2051 67.9531 15.9637ZM79.9328 14.0303C81.7317 14.5123 83.7848 12.6845 84.518 9.94808C85.2512 7.21163 84.3871 4.60221 82.5882 4.12019C80.7893 3.63818 78.7367 5.46607 78.0035 8.20252C77.2703 10.939 78.1339 13.5483 79.9328 14.0303ZM87.1777 13.2874C86.0115 12.3344 83.8561 12.9901 82.3623 14.7515C80.8684 16.5128 80.6031 18.7128 81.7693 19.6658C82.9356 20.6183 85.091 19.9626 86.5847 18.2017C88.0784 16.4408 88.3439 14.2404 87.1777 13.2874Z" fill="#DB9B61"/>
<path d="M110.225 22.4987C110.813 24.3014 111.065 25.2425 110.837 26.0926C110.387 27.7715 108.892 28.2434 107.171 27.7823C106.413 27.5791 105.924 27.4469 104.855 26.4869C104.855 26.4869 104.245 25.5558 102.349 25.1267C100.475 24.5462 99.4782 25.056 99.4782 25.056C98.0726 25.3524 97.6023 25.2193 96.8448 25.0163C95.1242 24.5553 94.0638 23.3997 94.5139 21.7199C94.7417 20.8697 95.4319 20.1822 96.8417 18.9136C96.8417 18.9136 99.5483 16.36 101.569 15.3589C103.029 14.6369 104.75 15.1023 104.75 15.1023L105.282 15.2447L105.282 15.2442C105.282 15.2442 107.081 15.7217 107.91 17.058C109.095 18.9739 110.225 22.4992 110.225 22.4987ZM101.36 12.0012C103.159 12.4833 105.212 10.6554 105.945 7.91891C106.678 5.18246 105.815 2.57317 104.016 2.09115C102.217 1.60913 100.164 3.43703 99.431 6.17348C98.6978 8.90993 99.5614 11.5192 101.36 12.0012ZM96.9531 15.9637C98.4391 15.7214 99.3092 13.6835 98.8961 11.4117C98.483 9.13981 96.9437 7.49417 95.4579 7.73604C93.972 7.97791 93.1022 10.0164 93.5149 12.2881C93.928 14.56 95.4674 16.2051 96.9531 15.9637ZM108.933 14.0303C110.732 14.5123 112.785 12.6845 113.518 9.94808C114.251 7.21163 113.387 4.60221 111.588 4.12019C109.789 3.63818 107.737 5.46607 107.003 8.20252C106.27 10.939 107.134 13.5483 108.933 14.0303ZM116.178 13.2874C115.011 12.3344 112.856 12.9901 111.362 14.7515C109.868 16.5128 109.603 18.7128 110.769 19.6658C111.936 20.6183 114.091 19.9626 115.585 18.2017C117.078 16.4408 117.344 14.2404 116.178 13.2874Z" fill="#DB9B61"/>
<path d="M139.225 22.4987C139.813 24.3014 140.065 25.2425 139.837 26.0926C139.387 27.7715 137.892 28.2434 136.171 27.7823C135.413 27.5791 134.924 27.4469 133.855 26.4869C133.855 26.4869 133.245 25.5558 131.349 25.1267C129.475 24.5462 128.478 25.056 128.478 25.056C127.073 25.3524 126.602 25.2193 125.845 25.0163C124.124 24.5553 123.064 23.3997 123.514 21.7199C123.742 20.8697 124.432 20.1822 125.842 18.9136C125.842 18.9136 128.548 16.36 130.569 15.3589C132.029 14.6369 133.75 15.1023 133.75 15.1023L134.282 15.2447L134.282 15.2442C134.282 15.2442 136.081 15.7217 136.91 17.058C138.095 18.9739 139.225 22.4992 139.225 22.4987ZM130.36 12.0012C132.159 12.4833 134.212 10.6554 134.945 7.91891C135.678 5.18246 134.815 2.57317 133.016 2.09115C131.217 1.60913 129.164 3.43703 128.431 6.17348C127.698 8.90993 128.561 11.5192 130.36 12.0012ZM125.953 15.9637C127.439 15.7214 128.309 13.6835 127.896 11.4117C127.483 9.13981 125.944 7.49417 124.458 7.73604C122.972 7.97791 122.102 10.0164 122.515 12.2881C122.928 14.56 124.467 16.2051 125.953 15.9637ZM137.933 14.0303C139.732 14.5123 141.785 12.6845 142.518 9.94808C143.251 7.21163 142.387 4.60221 140.588 4.12019C138.789 3.63818 136.737 5.46607 136.003 8.20252C135.27 10.939 136.134 13.5483 137.933 14.0303ZM145.178 13.2874C144.011 12.3344 141.856 12.9901 140.362 14.7515C138.868 16.5128 138.603 18.7128 139.769 19.6658C140.936 20.6183 143.091 19.9626 144.585 18.2017C146.078 16.4408 146.344 14.2404 145.178 13.2874Z" fill="#FBF5EF"/>
</svg>
