<svg width="149" height="29" viewBox="0 0 149 29" fill="none" xmlns="http://www.w3.org/2000/svg">
<path d="M20.2257 22.6594C20.813 24.462 21.0652 25.4032 20.8374 26.2533C20.3876 27.9322 18.8922 28.404 17.1716 27.943C16.4131 27.7397 15.9238 27.6076 14.8548 26.6476C14.8548 26.6476 14.245 25.7165 12.3491 25.2873C10.4749 24.7068 9.47848 25.2167 9.47848 25.2167C8.07285 25.5131 7.60253 25.3799 6.84504 25.177C5.1244 24.7159 4.06406 23.5603 4.51418 21.8805C4.74197 21.0304 5.43219 20.3428 6.84192 19.0743C6.84192 19.0743 9.54856 16.5206 11.5693 15.5196C13.029 14.7976 14.7506 15.2629 14.7506 15.2629L15.282 15.4053L15.2821 15.4048C15.2821 15.4048 17.0812 15.8823 17.9102 17.2186C19.0951 19.1346 20.2255 22.6599 20.2257 22.6594ZM11.3606 12.1619C13.1595 12.6439 15.2121 10.816 15.9453 8.07955C16.6785 5.3431 15.8149 2.73382 14.016 2.2518C12.217 1.76978 10.1645 3.59767 9.43124 6.33412C8.69801 9.07057 9.56164 11.6799 11.3606 12.1619ZM6.95334 16.1244C8.43932 15.882 9.30949 13.8442 8.89635 11.5723C8.48321 9.30046 6.94397 7.65482 5.45812 7.89669C3.97227 8.13856 3.10245 10.177 3.51511 12.4488C3.92825 14.7206 5.46761 16.3658 6.95334 16.1244ZM18.933 14.1909C20.732 14.6729 22.785 12.8452 23.5182 10.1087C24.2515 7.37227 23.3874 4.76286 21.5884 4.28084C19.7895 3.79882 17.737 5.62671 17.0037 8.36316C16.2705 11.0996 17.1341 13.7089 18.933 14.1909ZM26.1779 13.448C25.0117 12.495 22.8564 13.1507 21.3625 14.9121C19.8687 16.6735 19.6033 18.8734 20.7695 19.8264C21.9359 20.7789 24.0912 20.1233 25.5849 18.3624C27.0787 16.6014 27.3441 14.401 26.1779 13.448Z" fill="#DB9B61"/>
<path d="M52.2254 22.6594C52.8127 24.462 53.065 25.4032 52.8372 26.2533C52.3873 27.9322 50.892 28.404 49.1713 27.943C48.4129 27.7397 47.9235 27.6076 46.8546 26.6476C46.8546 26.6476 46.2448 25.7165 44.3488 25.2873C42.4747 24.7068 41.4782 25.2167 41.4782 25.2167C40.0726 25.5131 39.6023 25.3799 38.8448 25.177C37.1242 24.7159 36.0638 23.5603 36.5139 21.8805C36.7417 21.0304 37.4319 20.3428 38.8417 19.0743C38.8417 19.0743 41.5483 16.5206 43.569 15.5196C45.0288 14.7976 46.7503 15.2629 46.7503 15.2629L47.2817 15.4053L47.2819 15.4048C47.2819 15.4048 49.081 15.8823 49.91 17.2186C51.0949 19.1346 52.2253 22.6599 52.2254 22.6594ZM43.3603 12.1619C45.1592 12.6439 47.2118 10.816 47.945 8.07955C48.6783 5.3431 47.8146 2.73382 46.0157 2.2518C44.2168 1.76978 42.1642 3.59767 41.431 6.33412C40.6978 9.07057 41.5614 11.6799 43.3603 12.1619ZM38.9531 16.1244C40.4391 15.882 41.3092 13.8442 40.8961 11.5723C40.483 9.30046 38.9437 7.65482 37.4579 7.89669C35.972 8.13856 35.1022 10.177 35.5149 12.4488C35.928 14.7206 37.4674 16.3658 38.9531 16.1244ZM50.9328 14.1909C52.7317 14.6729 54.7848 12.8452 55.518 10.1087C56.2512 7.37227 55.3871 4.76286 53.5882 4.28084C51.7893 3.79882 49.7367 5.62671 49.0035 8.36316C48.2703 11.0996 49.1339 13.7089 50.9328 14.1909ZM58.1777 13.448C57.0115 12.495 54.8561 13.1507 53.3623 14.9121C51.8684 16.6735 51.6031 18.8734 52.7693 19.8264C53.9356 20.7789 56.091 20.1233 57.5847 18.3624C59.0784 16.6014 59.3439 14.401 58.1777 13.448Z" fill="#DB9B61"/>
<path d="M81.2254 22.6594C81.8127 24.462 82.065 25.4032 81.8372 26.2533C81.3873 27.9322 79.892 28.404 78.1713 27.943C77.4129 27.7397 76.9235 27.6076 75.8546 26.6476C75.8546 26.6476 75.2448 25.7165 73.3488 25.2873C71.4747 24.7068 70.4782 25.2167 70.4782 25.2167C69.0726 25.5131 68.6023 25.3799 67.8448 25.177C66.1242 24.7159 65.0638 23.5603 65.5139 21.8805C65.7417 21.0304 66.4319 20.3428 67.8417 19.0743C67.8417 19.0743 70.5483 16.5206 72.569 15.5196C74.0288 14.7976 75.7503 15.2629 75.7503 15.2629L76.2817 15.4053L76.2819 15.4048C76.2819 15.4048 78.081 15.8823 78.91 17.2186C80.0949 19.1346 81.2253 22.6599 81.2254 22.6594ZM72.3603 12.1619C74.1592 12.6439 76.2118 10.816 76.945 8.07955C77.6783 5.3431 76.8146 2.73382 75.0157 2.2518C73.2168 1.76978 71.1642 3.59767 70.431 6.33412C69.6978 9.07057 70.5614 11.6799 72.3603 12.1619ZM67.9531 16.1244C69.4391 15.882 70.3092 13.8442 69.8961 11.5723C69.483 9.30046 67.9437 7.65482 66.4579 7.89669C64.972 8.13856 64.1022 10.177 64.5149 12.4488C64.928 14.7206 66.4674 16.3658 67.9531 16.1244ZM79.9328 14.1909C81.7317 14.6729 83.7848 12.8452 84.518 10.1087C85.2512 7.37227 84.3871 4.76286 82.5882 4.28084C80.7893 3.79882 78.7367 5.62671 78.0035 8.36316C77.2703 11.0996 78.1339 13.7089 79.9328 14.1909ZM87.1777 13.448C86.0115 12.495 83.8561 13.1507 82.3623 14.9121C80.8684 16.6735 80.6031 18.8734 81.7693 19.8264C82.9356 20.7789 85.091 20.1233 86.5847 18.3624C88.0784 16.6014 88.3439 14.401 87.1777 13.448Z" fill="#FBF5EF"/>
<path d="M110.225 22.6594C110.813 24.462 111.065 25.4032 110.837 26.2533C110.387 27.9322 108.892 28.404 107.171 27.943C106.413 27.7397 105.924 27.6076 104.855 26.6476C104.855 26.6476 104.245 25.7165 102.349 25.2873C100.475 24.7068 99.4782 25.2167 99.4782 25.2167C98.0726 25.5131 97.6023 25.3799 96.8448 25.177C95.1242 24.7159 94.0638 23.5603 94.5139 21.8805C94.7417 21.0304 95.4319 20.3428 96.8417 19.0743C96.8417 19.0743 99.5483 16.5206 101.569 15.5196C103.029 14.7976 104.75 15.2629 104.75 15.2629L105.282 15.4053L105.282 15.4048C105.282 15.4048 107.081 15.8823 107.91 17.2186C109.095 19.1346 110.225 22.6599 110.225 22.6594ZM101.36 12.1619C103.159 12.6439 105.212 10.816 105.945 8.07955C106.678 5.3431 105.815 2.73382 104.016 2.2518C102.217 1.76978 100.164 3.59767 99.431 6.33412C98.6978 9.07057 99.5614 11.6799 101.36 12.1619ZM96.9531 16.1244C98.4391 15.882 99.3092 13.8442 98.8961 11.5723C98.483 9.30046 96.9437 7.65482 95.4579 7.89669C93.972 8.13856 93.1022 10.177 93.5149 12.4488C93.928 14.7206 95.4674 16.3658 96.9531 16.1244ZM108.933 14.1909C110.732 14.6729 112.785 12.8452 113.518 10.1087C114.251 7.37227 113.387 4.76286 111.588 4.28084C109.789 3.79882 107.737 5.62671 107.003 8.36316C106.27 11.0996 107.134 13.7089 108.933 14.1909ZM116.178 13.448C115.011 12.495 112.856 13.1507 111.362 14.9121C109.868 16.6735 109.603 18.8734 110.769 19.8264C111.936 20.7789 114.091 20.1233 115.585 18.3624C117.078 16.6014 117.344 14.401 116.178 13.448Z" fill="#FBF5EF"/>
<path d="M139.226 22.5791C139.813 24.3817 140.065 25.3228 139.837 26.173C139.388 27.8519 137.892 28.3237 136.172 27.8626C135.413 27.6594 134.924 27.5273 133.855 26.5673C133.855 26.5673 133.245 25.6362 131.349 25.207C129.475 24.6265 128.478 25.1363 128.478 25.1363C127.073 25.4328 126.603 25.2996 125.845 25.0967C124.124 24.6356 123.064 23.48 123.514 21.8002C123.742 20.95 124.432 20.2625 125.842 18.9939C125.842 18.9939 128.549 16.4403 130.569 15.4392C132.029 14.7172 133.751 15.1826 133.751 15.1826L134.282 15.325C134.282 15.325 136.081 15.802 136.91 17.1383C138.095 19.0543 139.226 22.5795 139.226 22.5791ZM130.361 12.0816C132.159 12.5636 134.212 10.7357 134.945 7.99923C135.679 5.26278 134.815 2.6535 133.016 2.17148C131.217 1.68946 129.164 3.51735 128.431 6.2538C127.698 8.99025 128.562 11.5995 130.361 12.0816ZM125.953 16.0441C127.439 15.8017 128.309 13.7638 127.896 11.492C127.483 9.22013 125.944 7.5745 124.458 7.81637C122.972 8.05823 122.102 10.0967 122.515 12.3684C122.928 14.6403 124.468 16.2855 125.953 16.0441ZM137.933 14.1106C139.732 14.5926 141.785 12.7649 142.518 10.0284C143.251 7.29195 142.387 4.68254 140.588 4.20052C138.79 3.7185 136.737 5.54639 136.004 8.28284C135.27 11.0193 136.134 13.6286 137.933 14.1106ZM145.178 13.3677C144.012 12.4147 141.856 13.0704 140.363 14.8318C138.869 16.5932 138.603 18.7931 139.77 19.7461C140.936 20.6986 143.091 20.0429 144.585 18.282C146.079 16.5211 146.344 14.3207 145.178 13.3677Z" fill="#FBF5EF"/>
</svg>
