<svg width="119" height="127" viewBox="0 0 119 127" fill="none" xmlns="http://www.w3.org/2000/svg">
<path d="M46.0955 71.4597C46.2746 71.4597 46.5496 71.3139 47.0079 71.0305C48.0661 70.3848 48.9035 69.0808 49.5034 67.3643C50.3325 64.9896 50.7032 61.8233 50.5824 58.4862C50.4616 55.2158 51.7948 52.0495 53.5904 49.3624C54.1694 48.4958 55.4068 47.4626 54.2028 47.4626C51.3365 47.4626 37.2299 54.7117 41.9627 61.7816C46.4871 68.5434 45.2998 71.4597 46.0955 71.4597Z" fill="#E1AC7C"/>
<path d="M66.4097 49.3666C68.2012 52.0537 69.5343 55.2242 69.4176 58.4904C69.2969 61.8234 69.6676 64.9939 70.4967 67.3686C71.0966 69.085 71.934 70.389 72.9922 71.0348C73.4546 71.3181 73.7296 71.4639 73.9045 71.4639C74.6961 71.4639 73.513 68.5434 78.0374 61.7859C82.7701 54.716 68.6635 47.4668 65.7972 47.4668C64.5891 47.4668 65.8306 48.5 66.4097 49.3666Z" fill="#E1AC7C"/>
<path d="M50.3159 69.2183C50.5409 69.6849 50.7784 70.1515 51.0242 70.614C53.828 75.8675 53.478 76.5716 53.478 77.9006C53.478 79.1171 56.261 79.9795 59.1607 77.6714V75.2967C58.0775 74.8343 56.7693 73.6428 56.7693 72.5762C56.7693 71.218 58.2024 71.0139 59.9731 71.0139C59.9814 71.0139 59.9897 71.0139 59.9981 71.0139C59.9981 71.0139 60.0147 71.0139 60.0231 71.0139C61.7937 71.0139 63.2269 71.218 63.2269 72.5762C63.2269 73.6428 61.9187 74.8343 60.8355 75.2967V77.6714C63.7518 79.9795 66.5181 79.1171 66.5181 77.9006C66.5181 76.5674 66.1682 75.8675 68.972 70.614C69.2178 70.1515 69.4553 69.6849 69.6802 69.2183C69.3261 68.4851 69.022 67.6477 68.772 66.7228C68.1304 64.3564 67.8471 61.4901 67.9596 58.4405C68.0012 57.2865 67.8429 56.0824 67.4847 54.8576C67.1931 53.8577 66.7722 52.8495 66.2306 51.8538C65.3224 50.179 64.2434 48.9458 64.2434 48.9458C63.9018 48.4416 63.8185 47.9917 63.8393 47.6292C61.7229 46.9168 59.9981 47.0002 59.9981 47.0002C59.9897 47.0002 58.2733 46.9168 56.1569 47.6292C56.1819 47.9917 56.0944 48.4416 55.7527 48.9458C55.7527 48.9458 54.6738 50.179 53.7655 51.8538C53.2239 52.8495 52.8031 53.8619 52.5115 54.8576C52.1532 56.0783 51.9949 57.2865 52.0366 58.4405C52.149 61.4943 51.8657 64.3564 51.2242 66.7228C50.9742 67.6477 50.67 68.4809 50.3159 69.2183ZM64.5767 58.0697C65.6599 58.0697 66.539 58.9487 66.539 60.0319C66.539 61.1151 65.6599 61.9942 64.5767 61.9942C63.4935 61.9942 62.6144 61.1151 62.6144 60.0319C62.6144 58.9487 63.4935 58.0697 64.5767 58.0697ZM55.4195 58.0697C56.5027 58.0697 57.3818 58.9487 57.3818 60.0319C57.3818 61.1151 56.5027 61.9942 55.4195 61.9942C54.3363 61.9942 53.4572 61.1151 53.4572 60.0319C53.4572 58.9487 54.3363 58.0697 55.4195 58.0697Z" fill="#E1AC7C"/>
<path d="M3.90933 69.8428C3.64024 69.9779 3.40455 70.1383 3.20228 70.3242C2.99682 70.5076 2.82895 70.7159 2.69867 70.9489C2.56801 71.1791 2.47892 71.4321 2.43143 71.7079C2.38393 71.9837 2.38182 72.2787 2.42508 72.5932C2.49603 73.1087 2.69174 73.5581 3.01223 73.9415C3.33272 74.3249 3.76555 74.6036 4.31071 74.7775C4.85588 74.9515 5.49974 74.9838 6.24231 74.8744C6.98487 74.765 7.59424 74.5466 8.07041 74.2192C8.54658 73.8918 8.88625 73.4935 9.08941 73.0243C9.29257 72.5551 9.35712 72.0514 9.28306 71.5132C9.21445 71.0147 9.04935 70.5911 8.78775 70.2424C8.52296 69.8913 8.18333 69.6379 7.76886 69.4822C7.3512 69.3241 6.87996 69.2837 6.35514 69.3611L6.3777 69.0283L6.73788 71.6455L5.81665 71.7813L5.36059 68.4672L6.28181 68.3315C6.98809 68.2274 7.62329 68.2899 8.18741 68.5189C8.75115 68.745 9.21362 69.1046 9.57483 69.5976C9.93285 70.0881 10.1594 70.679 10.2545 71.3701C10.3606 72.1405 10.2751 72.8438 9.99803 73.48C9.72061 74.1133 9.27491 74.6414 8.66092 75.0642C8.04654 75.4842 7.28711 75.7608 6.38263 75.8941C5.70428 75.9941 5.08164 75.9919 4.51474 75.8876C3.94465 75.7808 3.44499 75.5857 3.01577 75.3021C2.58654 75.0186 2.23808 74.6596 1.97036 74.2251C1.70265 73.7906 1.5304 73.2943 1.45361 72.7363C1.39046 72.2774 1.4 71.8396 1.48221 71.4229C1.56125 71.0038 1.70355 70.6201 1.90913 70.272C2.11152 69.9213 2.36998 69.6159 2.6845 69.3557C2.99623 69.0959 3.35461 68.8957 3.75964 68.7551L3.90933 69.8428Z" fill="#1F1F1F"/>
<path d="M10.0965 57.0146C10.0104 57.6059 9.79752 58.1034 9.45786 58.5069C9.1186 58.9075 8.68384 59.1944 8.15357 59.3676C7.62371 59.5379 7.02862 59.5716 6.36832 59.4687C5.70246 59.3648 5.13924 59.1505 4.67864 58.8257C4.21845 58.4981 3.88332 58.0912 3.67324 57.6048C3.46358 57.1157 3.4018 56.5754 3.48791 55.9841C3.57403 55.3928 3.78671 54.8968 4.12596 54.4961C4.46562 54.0926 4.90177 53.8059 5.43441 53.636C5.96746 53.4633 6.56691 53.4288 7.23276 53.5327C7.89307 53.6356 8.45193 53.8507 8.90934 54.1779C9.36716 54.5022 9.70091 54.909 9.91057 55.3982C10.1207 55.8845 10.1826 56.4233 10.0965 57.0146ZM9.21426 56.877C9.27968 56.4279 9.22113 56.0408 9.03864 55.7158C8.85614 55.3907 8.59192 55.13 8.24599 54.9336C7.90006 54.7372 7.51346 54.6057 7.0862 54.5391C6.65895 54.4724 6.25068 54.48 5.8614 54.5618C5.47212 54.6435 5.14261 54.8117 4.87288 55.0662C4.60315 55.3207 4.43558 55.6725 4.37017 56.1217C4.30476 56.5709 4.36469 56.9582 4.54996 57.2836C4.73523 57.6091 5.00222 57.8702 5.35093 58.0671C5.69964 58.2639 6.08762 58.3956 6.51488 58.4623C6.94213 58.5289 7.34901 58.5211 7.73552 58.4389C8.12203 58.3567 8.44876 58.1881 8.71571 57.9332C8.98267 57.6783 9.14885 57.3262 9.21426 56.877Z" fill="#1F1F1F"/>
<path d="M5.05596 41.4457L13.0327 44.7035L12.6698 45.6549L4.69306 42.3971L5.05596 41.4457Z" fill="#1F1F1F"/>
<path d="M17.7064 35.6094C17.4011 36.0689 17.0206 36.3955 16.5649 36.5894C16.1069 36.7816 15.6081 36.8321 15.0688 36.7409C14.5271 36.6481 13.977 36.403 13.4185 36.0057C12.8646 35.6117 12.4499 35.1704 12.1744 34.682C11.899 34.1935 11.7679 33.6932 11.7811 33.1811C11.7944 32.669 11.9553 32.1808 12.2637 31.7165C12.5022 31.3575 12.7478 31.1146 13.0006 30.9878C13.2527 30.857 13.4874 30.7879 13.7047 30.7804C13.9213 30.7689 14.0961 30.7645 14.229 30.7675L14.2767 30.6957L11.6811 28.8492L12.2439 28.002L19.2754 33.0041L18.7317 33.8225L17.9214 33.2461L17.8546 33.3466C17.9094 33.4773 17.9719 33.6521 18.0421 33.8712C18.11 34.0886 18.1304 34.3446 18.1034 34.639C18.074 34.9317 17.9417 35.2552 17.7064 35.6094ZM17.0548 34.9767C17.2806 34.6369 17.3867 34.2895 17.3731 33.9345C17.3573 33.5778 17.2388 33.231 17.0177 32.894C16.7944 32.5554 16.4836 32.2445 16.0853 31.9611C15.6916 31.6811 15.3074 31.4958 14.9326 31.4054C14.5556 31.3134 14.2068 31.3261 13.8861 31.4434C13.5632 31.559 13.2873 31.7892 13.0584 32.1338C12.8199 32.4927 12.7093 32.8546 12.7265 33.2193C12.7431 33.5799 12.8615 33.9267 13.0819 34.2597C13.3016 34.5886 13.5968 34.885 13.9676 35.1488C14.343 35.4158 14.7238 35.5986 15.11 35.6971C15.4955 35.7917 15.8574 35.7848 16.1956 35.6765C16.5331 35.5642 16.8195 35.3309 17.0548 34.9767Z" fill="#1F1F1F"/>
<path d="M27.0459 24.6532C26.5668 25.07 26.0663 25.3222 25.5445 25.4098C25.023 25.4934 24.5109 25.423 24.0082 25.1987C23.5059 24.9703 23.0447 24.5976 22.6248 24.0807C22.2048 23.5639 21.9275 23.0276 21.7928 22.4719C21.6585 21.9121 21.6687 21.3761 21.8235 20.8639C21.9787 20.3476 22.2807 19.8942 22.7296 19.5037C22.9886 19.2784 23.2799 19.0997 23.6036 18.9677C23.9272 18.8356 24.2727 18.778 24.6401 18.7949C25.0056 18.8096 25.3807 18.9244 25.7653 19.1394C26.1499 19.3543 26.5335 19.6973 26.916 20.1682L27.183 20.4967L23.3501 23.831L22.8056 23.1608L25.8615 20.5024C25.6302 20.2176 25.3677 20.0124 25.0739 19.8866C24.7824 19.7589 24.4816 19.7197 24.1716 19.7688C23.8637 19.8161 23.5717 19.9599 23.2954 20.2002C22.9912 20.4649 22.7901 20.7706 22.6924 21.1173C22.5951 21.4599 22.5858 21.8044 22.6646 22.1508C22.7434 22.4972 22.8958 22.8094 23.1218 23.0876L23.4848 23.5344C23.7945 23.9155 24.1217 24.1822 24.4665 24.3346C24.8117 24.4829 25.1568 24.5247 25.502 24.4599C25.8454 24.3929 26.1714 24.2252 26.48 23.9567C26.6807 23.7821 26.8389 23.5959 26.9545 23.3982C27.0705 23.1964 27.1406 22.9858 27.165 22.7664C27.1876 22.5449 27.1601 22.3184 27.0825 22.0868L27.9914 21.655C28.1201 21.9767 28.1711 22.3136 28.1442 22.666C28.1156 23.0161 28.01 23.3622 27.8274 23.7042C27.6431 24.044 27.3826 24.3603 27.0459 24.6532Z" fill="#1F1F1F"/>
<path d="M34.5563 14.4877L36.1498 18.0869L35.2408 18.5179L32.5918 12.5348L33.47 12.1185L33.8839 13.0533L33.9609 13.0168C33.9651 12.6472 34.0676 12.3033 34.2684 11.985C34.4681 11.6641 34.7914 11.3978 35.2382 11.1859C35.6388 10.996 36.0261 10.9129 36.4002 10.9367C36.773 10.9579 37.1171 11.0964 37.4323 11.3522C37.7464 11.6055 38.0161 11.9866 38.2415 12.4956L39.9247 16.2973L39.0156 16.7283L37.36 12.9889C37.1519 12.5188 36.8691 12.2099 36.5116 12.0621C36.1529 11.9116 35.763 11.9363 35.3419 12.1359C35.0517 12.2735 34.8205 12.4601 34.6483 12.6957C34.4787 12.93 34.3824 13.2003 34.3595 13.5065C34.3366 13.8127 34.4022 14.1398 34.5563 14.4877Z" fill="#1F1F1F"/>
<path d="M57.9753 12.3354L58.3555 3.53018L61.271 3.66494C61.9451 3.6961 62.4933 3.83919 62.9157 4.09422C63.3383 4.34639 63.6447 4.68078 63.8349 5.0974C64.0252 5.51402 64.1092 5.98173 64.0868 6.50053C64.0644 7.01932 63.9406 7.47456 63.7154 7.86623C63.4902 8.2579 63.1578 8.55846 62.7182 8.7679C62.2787 8.97447 61.7247 9.06231 61.0562 9.03141L58.6968 8.92235L58.7384 7.95928L61.0641 8.06678C61.5247 8.08807 61.8984 8.03642 62.1852 7.91182C62.4749 7.78735 62.6883 7.60192 62.8256 7.35553C62.9658 7.1064 63.0435 6.80556 63.0588 6.45301C63.074 6.10045 63.0227 5.78934 62.9049 5.51967C62.787 5.25 62.5894 5.03695 62.3119 4.88053C62.0345 4.72123 61.6627 4.63081 61.1964 4.60926L59.3595 4.52435L59.0202 12.3837L57.9753 12.3354ZM62.2076 8.56767L64.1603 12.6213L62.9469 12.5652L61.0279 8.51314L62.2076 8.56767Z" fill="#1F1F1F"/>
<path d="M74.1376 15.0911C73.5473 14.8927 73.0804 14.5871 72.7368 14.1743C72.3967 13.7596 72.1872 13.2705 72.1084 12.707C72.0331 12.1417 72.0971 11.5352 72.3004 10.8876C72.5037 10.24 72.7972 9.7076 73.181 9.2905C73.5682 8.87155 74.0114 8.59276 74.5105 8.45412C75.0131 8.31364 75.541 8.33634 76.094 8.52224C76.413 8.62949 76.7108 8.79028 76.9875 9.00462C77.2641 9.21896 77.4912 9.49251 77.6689 9.82529C77.8475 10.1553 77.9492 10.5475 77.9741 11.0019C77.999 11.4562 77.9189 11.9784 77.7337 12.5684L77.6044 12.98L72.8825 11.3927L73.1462 10.553L76.9109 11.8185C77.0229 11.4618 77.0537 11.1202 77.0033 10.7938C76.9556 10.4683 76.8309 10.1822 76.6291 9.93538C76.43 9.68946 76.1603 9.5093 75.82 9.3949C75.4451 9.26888 75.0906 9.2559 74.7565 9.35594C74.4258 9.45412 74.1396 9.63094 73.8977 9.8864C73.6559 10.1418 73.4802 10.4438 73.3708 10.7923L73.1951 11.3522C73.0452 11.8297 72.9979 12.2612 73.0531 12.6469C73.1119 13.0307 73.2578 13.3574 73.4906 13.6268C73.7244 13.8934 74.0313 14.0907 74.4115 14.2185C74.6588 14.3016 74.8933 14.341 75.1151 14.3367C75.3405 14.3305 75.5491 14.2793 75.741 14.183C75.9337 14.084 76.1044 13.9381 76.2531 13.7454L77.0797 14.3145C76.884 14.6006 76.6353 14.8264 76.3335 14.992C76.0326 15.1547 75.6948 15.2475 75.3203 15.2703C74.9466 15.2903 74.5523 15.2306 74.1376 15.0911Z" fill="#1F1F1F"/>
<path d="M89.1779 15L88.7374 15.7413L85.9091 13.9421L86.3496 13.2007L89.1779 15ZM87.9844 12.361L88.8229 12.8944L85.5986 18.3213C85.4518 18.5684 85.376 18.7756 85.3713 18.9429C85.3704 19.1092 85.412 19.248 85.496 19.3593C85.5838 19.4697 85.6893 19.5641 85.8125 19.6424C85.9049 19.7012 85.9836 19.7445 86.0487 19.7723C86.1153 19.7976 86.1685 19.8178 86.2085 19.833L85.9121 20.7274C85.842 20.7135 85.7495 20.6852 85.6344 20.6427C85.5179 20.6026 85.3814 20.5328 85.2251 20.4333C84.9882 20.2827 84.7876 20.0818 84.6234 19.8309C84.4615 19.5815 84.3705 19.3006 84.3505 18.9882C84.3329 18.6773 84.4224 18.3562 84.6191 18.0251L87.9844 12.361Z" fill="#1F1F1F"/>
<path d="M92.0416 25.6508L96.5419 20.8174L97.224 21.4974L96.5442 22.2274L96.5921 22.2752C96.8985 22.1195 97.2308 22.0766 97.5888 22.1463C97.9469 22.2161 98.2635 22.3882 98.5387 22.6625C98.5905 22.7142 98.6544 22.7799 98.7302 22.8595C98.806 22.9392 98.8619 23.001 98.8979 23.0449L98.1947 23.8002C98.1767 23.77 98.1306 23.7059 98.0566 23.6078C97.9865 23.5096 97.9046 23.4138 97.8109 23.3204C97.5875 23.0977 97.3422 22.9481 97.0749 22.8718C96.8115 22.7953 96.5489 22.7924 96.287 22.863C96.0291 22.9335 95.7986 23.0778 95.5954 23.296L92.7476 26.3546L92.0416 25.6508Z" fill="#1F1F1F"/>
<path d="M99.1207 33.8838L104.45 30.0294L105.011 30.8589L99.681 34.7133L99.1207 33.8838ZM105.623 29.8087C105.514 29.6471 105.474 29.4683 105.504 29.2725C105.535 29.0791 105.627 28.9272 105.78 28.8168C105.932 28.7063 106.102 28.6692 106.288 28.7054C106.476 28.7439 106.625 28.8441 106.734 29.0057C106.843 29.1674 106.882 29.345 106.851 29.5384C106.821 29.7342 106.73 29.8873 106.577 29.9977C106.425 30.1081 106.255 30.1441 106.067 30.1055C105.88 30.0694 105.733 29.9704 105.623 29.8087Z" fill="#1F1F1F"/>
<path d="M104.437 43.9953C104.201 43.4098 104.126 42.8498 104.211 42.3151C104.299 41.782 104.528 41.3013 104.897 40.8731C105.27 40.4464 105.764 40.1005 106.38 39.8354C106.995 39.5704 107.583 39.4502 108.144 39.4748C108.708 39.5009 109.204 39.6616 109.632 39.9569C110.063 40.2537 110.389 40.6764 110.61 41.2249C110.737 41.5414 110.811 41.8763 110.831 42.2298C110.85 42.5833 110.794 42.9371 110.661 43.2914C110.531 43.6445 110.304 43.9788 109.981 44.2942C109.659 44.6096 109.217 44.888 108.656 45.1295L108.265 45.298L106.381 40.6146L107.179 40.2709L108.681 44.005C109.02 43.859 109.295 43.6601 109.506 43.4084C109.718 43.1594 109.85 42.8764 109.903 42.5596C109.957 42.2455 109.917 41.9196 109.781 41.5821C109.631 41.2103 109.411 40.9279 109.119 40.7349C108.831 40.5434 108.513 40.4374 108.165 40.4171C107.817 40.3967 107.478 40.4579 107.146 40.6005L106.614 40.8296C106.161 41.0251 105.808 41.2698 105.556 41.564C105.308 41.8596 105.159 42.1852 105.109 42.5408C105.062 42.8952 105.114 43.261 105.266 43.6381C105.365 43.8833 105.488 44.0902 105.635 44.2588C105.786 44.4289 105.96 44.5567 106.156 44.6422C106.355 44.7266 106.575 44.7634 106.816 44.7527L106.928 45.7624C106.587 45.7978 106.257 45.7528 105.938 45.6275C105.621 45.501 105.332 45.3005 105.071 45.0259C104.814 44.7502 104.602 44.4066 104.437 43.9953Z" fill="#1F1F1F"/>
<path d="M114.756 58.3483L108.001 56.8426L107.866 55.822L113.984 52.4969L114.127 53.5856L109.236 56.1135L109.245 56.1815L114.612 57.2597L114.756 58.3483Z" fill="#1F1F1F"/>
<path d="M108.027 69.8555C108.102 69.2224 108.304 68.6937 108.632 68.2695C108.962 67.8485 109.389 67.5455 109.912 67.3604C110.437 67.1786 111.028 67.1297 111.686 67.2138C112.343 67.2978 112.908 67.4946 113.38 67.8039C113.855 68.1165 114.206 68.5118 114.435 68.9898C114.666 69.471 114.746 70.0082 114.675 70.6014C114.635 70.9436 114.538 71.2744 114.387 71.5938C114.236 71.9132 114.019 72.1938 113.735 72.4355C113.454 72.6775 113.1 72.8537 112.671 72.9638C112.242 73.074 111.728 73.0908 111.129 73.0142L110.711 72.9608L111.316 67.8961L112.168 68.0051L111.686 72.0432C112.048 72.0895 112.38 72.0567 112.682 71.9447C112.984 71.8356 113.233 71.6561 113.429 71.4062C113.626 71.1592 113.746 70.8531 113.789 70.4881C113.837 70.086 113.782 69.7256 113.622 69.407C113.464 69.0915 113.24 68.8356 112.95 68.6392C112.659 68.4428 112.337 68.322 111.983 68.2767L111.415 68.2041C110.93 68.1421 110.509 68.1751 110.151 68.3031C109.796 68.4343 109.512 68.6427 109.3 68.9282C109.091 69.2141 108.961 69.561 108.913 69.9688C108.881 70.234 108.889 70.4781 108.936 70.7013C108.985 70.9276 109.074 71.1287 109.203 71.3044C109.335 71.4805 109.507 71.6256 109.72 71.7396L109.336 72.6807C109.025 72.5367 108.761 72.3279 108.545 72.0541C108.331 71.7807 108.178 71.4571 108.084 71.0831C107.993 70.7096 107.974 70.3003 108.027 69.8555Z" fill="#1F1F1F"/>
<path d="M106.027 80.1202L112.048 82.466L111.712 83.3905L110.802 83.0362L110.779 83.1011C111.035 83.3307 111.202 83.6303 111.28 84C111.357 84.3696 111.328 84.7409 111.192 85.114C111.167 85.1843 111.133 85.2716 111.092 85.376C111.052 85.4804 111.019 85.5586 110.994 85.6107L110.053 85.2441C110.072 85.2147 110.111 85.145 110.169 85.0349C110.229 84.9285 110.282 84.8117 110.328 84.6847C110.438 84.3819 110.475 84.0877 110.439 83.8019C110.404 83.5199 110.305 83.2682 110.141 83.0469C109.978 82.8293 109.761 82.6675 109.489 82.5616L105.679 81.0772L106.027 80.1202Z" fill="#1F1F1F"/>
<path d="M97.419 102.156L98.67 103.536L99.079 101.668L99.86 101.877L99.2972 103.712L101.064 103.111L101.275 103.917L99.4727 104.359L100.819 105.64L100.248 106.236L98.9972 104.856L98.5882 106.725L97.8071 106.515L98.37 104.681L96.603 105.281L96.3925 104.475L98.1945 104.033L96.8484 102.753L97.419 102.156Z" fill="#1F1F1F"/>
<path d="M78.8042 120.395L75.8228 112.179L76.8065 111.797L79.4093 118.97L79.4569 118.951L80.9567 116.849L81.3235 117.86L79.7878 120.012L78.8042 120.395Z" fill="#1F1F1F"/>
<path d="M65.5309 123.717C65.1773 123.751 64.8174 123.72 64.451 123.623C64.0846 123.526 63.7405 123.337 63.4186 123.057C63.097 122.78 62.8219 122.385 62.5934 121.87C62.3648 121.356 62.2113 120.698 62.133 119.894C62.0572 119.117 62.0628 118.419 62.1497 117.8C62.2342 117.184 62.3922 116.655 62.624 116.214C62.8529 115.773 63.1504 115.425 63.5165 115.171C63.8799 114.917 64.3041 114.765 64.7892 114.715C65.2715 114.664 65.7113 114.716 66.1087 114.87C66.5036 115.028 66.8386 115.267 67.1136 115.59C67.3861 115.915 67.5785 116.305 67.6908 116.759L66.6645 116.867C66.5328 116.475 66.3168 116.162 66.0165 115.929C65.7136 115.698 65.335 115.607 64.8808 115.655C64.2162 115.724 63.7206 116.073 63.394 116.703C63.0645 117.333 62.9522 118.186 63.0572 119.263L63.1245 119.256C63.2582 119 63.4245 118.774 63.6235 118.578C63.8225 118.382 64.0492 118.223 64.3036 118.101C64.558 117.98 64.8338 117.904 65.131 117.873C65.6245 117.821 66.0895 117.898 66.5258 118.102C66.9596 118.31 67.3212 118.619 67.6104 119.029C67.8971 119.442 68.068 119.931 68.1229 120.495C68.1751 121.03 68.1051 121.532 67.9129 122.001C67.7182 122.473 67.4192 122.864 67.016 123.174C66.61 123.484 66.115 123.665 65.5309 123.717ZM65.4393 122.777C65.7926 122.741 66.1021 122.618 66.3678 122.409C66.631 122.203 66.8306 121.94 66.9666 121.621C67.1001 121.305 67.149 120.965 67.1135 120.6C67.078 120.236 66.9671 119.912 66.7809 119.629C66.5922 119.35 66.3518 119.136 66.0598 118.988C65.7653 118.844 65.4414 118.79 65.0881 118.826C64.8217 118.854 64.5787 118.933 64.359 119.062C64.1396 119.194 63.9534 119.362 63.8005 119.565C63.6449 119.771 63.5296 119.998 63.4545 120.244C63.3797 120.494 63.3549 120.748 63.3802 121.007C63.4135 121.349 63.5261 121.661 63.7179 121.943C63.9069 122.225 64.152 122.444 64.4532 122.6C64.7517 122.756 65.0804 122.815 65.4393 122.777Z" fill="#1F1F1F"/>
<path d="M53.5258 114.923L53.3916 115.687L50.0427 118.303C49.6498 118.609 49.3233 118.878 49.0631 119.11C48.8025 119.345 48.6 119.573 48.4557 119.794C48.3082 120.018 48.211 120.263 48.1643 120.529C48.1107 120.834 48.1359 121.112 48.2401 121.363C48.3416 121.613 48.5044 121.822 48.7285 121.99C48.9527 122.158 49.2179 122.27 49.5241 122.328C49.8497 122.389 50.146 122.373 50.4131 122.28C50.677 122.189 50.8967 122.033 51.0724 121.812C51.2453 121.59 51.3608 121.314 51.4189 120.982L52.3955 121.166C52.3061 121.676 52.1131 122.101 51.8165 122.443C51.52 122.785 51.1556 123.026 50.7233 123.167C50.2883 123.308 49.8239 123.332 49.33 123.239C48.8335 123.146 48.4123 122.955 48.0666 122.668C47.7209 122.381 47.4711 122.034 47.3173 121.628C47.1634 121.222 47.1258 120.795 47.2043 120.348C47.2604 120.028 47.3719 119.726 47.5387 119.442C47.7022 119.16 47.9547 118.858 48.2961 118.536C48.6343 118.216 49.0932 117.835 49.6726 117.391L51.9429 115.66L51.9548 115.592L48.0153 114.852L48.1793 113.918L53.5258 114.923Z" fill="#1F1F1F"/>
<path d="M37.662 109.896C38.2262 110.185 38.6305 110.591 38.8747 111.114C39.1176 111.639 39.1981 112.26 39.1159 112.977C39.0326 113.697 38.7835 114.49 38.3687 115.357C37.9564 116.218 37.4995 116.9 36.9979 117.402C36.4926 117.905 35.9645 118.216 35.4135 118.334C34.8588 118.454 34.3018 118.37 33.7426 118.083C33.1833 117.797 32.7829 117.39 32.5411 116.862C32.2957 116.335 32.2146 115.712 32.298 114.993C32.3776 114.274 32.6236 113.484 33.0359 112.623C33.4507 111.757 33.9095 111.071 34.4123 110.566C34.9138 110.064 35.4401 109.754 35.9911 109.636C36.5408 109.52 37.0977 109.607 37.662 109.896ZM37.2522 110.752C36.6929 110.466 36.1244 110.523 35.5465 110.925C34.9687 111.326 34.4314 112.046 33.9347 113.084C33.6043 113.774 33.3942 114.398 33.3043 114.956C33.2118 115.513 33.2371 115.986 33.38 116.376C33.5205 116.765 33.7755 117.054 34.145 117.243C34.6992 117.527 35.2684 117.465 35.8524 117.057C36.4352 116.651 36.9744 115.931 37.4699 114.896C37.8003 114.206 38.011 113.584 38.1022 113.03C38.1934 112.475 38.1681 112.005 38.0264 111.619C37.8823 111.232 37.6242 110.943 37.2522 110.752Z" fill="#1F1F1F"/>
<path d="M17.3578 98.0602L15.8444 99.1842L17.5777 99.8148L17.2588 100.59L15.5819 99.8064L15.8931 101.683L15.0873 101.807L14.9339 99.9127L13.5016 101.145L13.0147 100.494L14.5281 99.3697L12.7948 98.7391L13.1137 97.9634L14.7906 98.7475L14.4794 96.8707L15.2852 96.7466L15.4386 98.6412L16.8709 97.4085L17.3578 98.0602Z" fill="#1F1F1F"/>
</svg>
